<svg width="24" height="24" viewBox="0 0 24 24" fill="none" xmlns="http://www.w3.org/2000/svg">
<path d="M18.53 8.53C18.53 9.29 18.09 9.88 17.77 10.31C17.64 10.48 17.5 10.67 17.45 10.79C17.4 10.92 17.36 11.16 17.33 11.38C17.24 11.93 17.14 12.62 16.61 13.14C16.09 13.67 15.41 13.77 14.86 13.85C14.63 13.89 14.4 13.92 14.26 13.98C14.14 14.03 13.96 14.16 13.78 14.3C13.35 14.62 12.77 15.05 12 15.05C11.23 15.05 10.65 14.62 10.22 14.3C10.04 14.16 9.85997 14.03 9.73997 13.98C9.59997 13.92 9.36997 13.89 9.13997 13.85C8.58997 13.77 7.90997 13.67 7.37997 13.14C6.85997 12.62 6.75997 11.93 6.66997 11.38C6.63997 11.16 6.59997 10.92 6.54997 10.79C6.49997 10.67 6.35997 10.48 6.22997 10.31C5.90997 9.88 5.46997 9.29 5.46997 8.53C5.46997 7.76 5.90997 7.17 6.22997 6.74C6.35997 6.57 6.49997 6.39 6.54997 6.27C6.59997 6.13 6.63997 5.9 6.66997 5.67C6.75997 5.12 6.85997 4.44 7.38997 3.91C7.90997 3.39 8.58997 3.28 9.13997 3.2C9.36997 3.17 9.59997 3.13 9.73997 3.07C9.85997 3.02 10.04 2.89 10.22 2.76C10.65 2.44 11.23 2 12 2C12.77 2 13.35 2.44 13.78 2.76C13.96 2.89 14.14 3.02 14.26 3.07C14.4 3.13 14.63 3.17 14.86 3.2C15.41 3.28 16.09 3.39 16.62 3.91C17.14 4.44 17.24 5.12 17.33 5.67C17.36 5.9 17.4 6.13 17.45 6.27C17.5 6.39 17.64 6.57 17.77 6.74C18.09 7.17 18.53 7.76 18.53 8.53Z" fill="white"/>
<path d="M21.6301 16.22L16.2701 11.89L12.0001 13.62L7.73006 11.9L2.37006 16.23C2.08006 16.47 1.94006 16.85 2.02006 17.22C2.10006 17.59 2.39006 17.88 2.75006 17.97L6.26006 18.85L7.30006 21.38C7.43006 21.69 7.71006 21.92 8.04006 21.98C8.38006 22.04 8.72006 21.93 8.95006 21.68L12.0001 18.46L15.0401 21.69C15.2301 21.89 15.5001 22 15.7701 22C15.8301 22 15.8901 21.99 15.9501 21.98C16.2801 21.92 16.5601 21.69 16.6901 21.38L17.7301 18.85L21.2401 17.97C21.6101 17.88 21.8901 17.59 21.9701 17.22C22.0601 16.85 21.9201 16.46 21.6301 16.22Z" fill="#FF981E"/>
<path d="M12 5L11.19 6.98L9 7.4L10.69 8.828L10 11L12 9.98L14 11L13.31 8.828L15 7.4L12.81 6.98L12 5Z" fill="#FFD645"/>
<path opacity="0.1" d="M21.63 16.22L17.77 13.1L16.28 11.89L15.7 12.12L15.29 12.29L12.5 13.42L12 13.62V13.71C11.91 13.71 11.69 13.56 11.5 13.42L8.70997 12.29C8.53997 12.26 8.36997 12.22 8.31997 12.18C8.30997 12.17 8.30997 12.14 8.29997 12.13L7.71997 11.9L6.21997 13.11C6.32997 13.36 6.46997 13.6 6.67997 13.82C7.28997 14.42 8.06997 14.53 8.69997 14.64C8.95997 14.67 9.22997 14.72 9.38997 14.78C9.52997 14.84 9.72997 15 9.93997 15.15C10.45 15.49 11.12 16 12 16V18.46L15.04 21.69C15.23 21.89 15.5 22 15.77 22C15.83 22 15.89 21.99 15.95 21.98C16.28 21.92 16.56 21.69 16.69 21.38L17.73 18.85L21.24 17.97C21.61 17.88 21.89 17.59 21.97 17.22C22.06 16.85 21.92 16.46 21.63 16.22Z" fill="#1D304E"/>
<path d="M17.77 6.74C17.64 6.57 17.5 6.39 17.45 6.27C17.4 6.13 17.36 5.9 17.33 5.67C17.24 5.12 17.14 4.44 16.62 3.91C16.09 3.39 15.41 3.28 14.86 3.2C14.63 3.17 14.4 3.13 14.26 3.07C14.14 3.02 13.96 2.89 13.78 2.76C13.35 2.44 12.77 2 12 2C11.23 2 10.65 2.44 10.22 2.76C10.04 2.89 9.85997 3.02 9.73997 3.07C9.59997 3.13 9.36997 3.17 9.13997 3.2C8.58997 3.28 7.90997 3.39 7.38997 3.91C6.85997 4.44 6.75997 5.12 6.66997 5.67C6.63997 5.9 6.59997 6.13 6.54997 6.27C6.49997 6.39 6.35997 6.57 6.22997 6.74C5.90997 7.17 5.46997 7.76 5.46997 8.53C5.46997 9.29 5.90997 9.88 6.22997 10.31C6.35997 10.48 6.49997 10.67 6.54997 10.79C6.59997 10.92 6.63997 11.16 6.66997 11.38C6.75997 11.93 6.85997 12.62 7.37997 13.14C7.90997 13.67 8.58997 13.77 9.13997 13.85C9.36997 13.89 9.59997 13.92 9.73997 13.98C9.85997 14.03 10.04 14.16 10.22 14.3C10.65 14.62 11.23 15.05 12 15.05C12.77 15.05 13.35 14.62 13.78 14.3C13.96 14.16 14.14 14.03 14.26 13.98C14.4 13.92 14.63 13.89 14.86 13.85C15.41 13.77 16.09 13.67 16.61 13.14C17.14 12.62 17.24 11.93 17.33 11.38C17.36 11.16 17.4 10.92 17.45 10.79C17.5 10.67 17.64 10.48 17.77 10.31C18.09 9.88 18.53 9.29 18.53 8.53C18.53 7.76 18.09 7.17 17.77 6.74ZM16.17 9.11C15.97 9.37 15.75 9.67 15.61 10.02C15.46 10.38 15.4 10.75 15.35 11.08C15.32 11.29 15.26 11.65 15.2 11.73C15.12 11.79 14.77 11.84 14.56 11.88C14.23 11.92 13.85 11.98 13.49 12.13C13.14 12.28 12.85 12.5 12.58 12.69C12.42 12.82 12.1 13.05 12 13.05C11.9 13.05 11.58 12.82 11.42 12.69C11.15 12.5 10.86 12.28 10.51 12.13C10.15 11.98 9.76997 11.92 9.43997 11.88C9.22997 11.84 8.87997 11.79 8.79997 11.73C8.73997 11.65 8.67997 11.3 8.64997 11.09C8.59997 10.76 8.53997 10.38 8.38997 10.02C8.24997 9.67 8.02997 9.37 7.82997 9.11C7.70997 8.94 7.46997 8.63 7.46997 8.53C7.46997 8.42 7.70997 8.11 7.82997 7.94C8.02997 7.68 8.24997 7.38 8.38997 7.03C8.53997 6.67 8.59997 6.3 8.64997 5.97C8.67997 5.76 8.73997 5.41 8.79997 5.33C8.87997 5.26 9.22997 5.21 9.43997 5.18C9.76997 5.13 10.15 5.07 10.51 4.92C10.86 4.78 11.15 4.55 11.42 4.36C11.58 4.23 11.9 4 12 4C12.1 4 12.42 4.23 12.58 4.36C12.85 4.55 13.14 4.78 13.49 4.92C13.85 5.07 14.23 5.13 14.56 5.18C14.77 5.21 15.12 5.26 15.2 5.32C15.26 5.41 15.32 5.76 15.35 5.97C15.4 6.3 15.46 6.67 15.61 7.03C15.75 7.38 15.97 7.68 16.17 7.94C16.29 8.11 16.53 8.42 16.53 8.53C16.53 8.63 16.29 8.94 16.17 9.11Z" fill="#FFD645"/>
</svg>
