<svg width="24" height="24" viewBox="0 0 24 24" fill="none" xmlns="http://www.w3.org/2000/svg">
<g clip-path="url(#clip0_21_1148)">
<path d="M23.8584 11.5612L22.2019 9.26557L22.4905 6.45054C22.5234 6.12847 22.3462 5.82158 22.0507 5.68939L19.4671 4.53345L18.3113 1.94966C18.179 1.6543 17.8722 1.47707 17.5503 1.50983L14.734 1.79826L12.4389 0.141837C12.1767 -0.0471161 11.8233 -0.0471161 11.5611 0.141837L9.26604 1.79821L6.45027 1.50979C6.12964 1.47702 5.82149 1.65426 5.6893 1.9498L4.53374 4.53341L1.94995 5.68901C1.6544 5.82125 1.47698 6.1279 1.50993 6.44998L1.79835 9.26613L0.142123 11.5612C-0.0470175 11.8232 -0.0470175 12.177 0.141935 12.439L1.79849 14.7344L1.51026 17.5504C1.47731 17.8725 1.65473 18.1792 1.95009 18.3113L4.53332 19.4668L5.68925 22.0507C5.82149 22.3461 6.12964 22.5232 6.45022 22.4906L9.266 22.2023L11.561 23.8583C11.6921 23.9528 11.8459 24 11.9999 24C12.1537 24 12.3077 23.9528 12.4386 23.8583L14.7342 22.2023L17.5504 22.4904C17.8743 22.5232 18.1792 22.3459 18.3114 22.0504L19.467 19.4671L22.0506 18.3113C22.3459 18.1791 22.5233 17.8723 22.4904 17.5504L22.202 14.7344L23.8583 12.439C24.0474 12.177 24.0474 11.8232 23.8584 11.5612Z" fill="#FF6954"/>
<path d="M23.8584 11.5611L22.2018 9.26547L22.4904 6.45045C22.5234 6.12837 22.3461 5.82148 22.0506 5.68929L19.467 4.53336L18.3112 1.94957C18.1789 1.65421 17.8721 1.47697 17.5502 1.50974L15.2678 1.74341C15.3241 1.80327 15.3725 1.87161 15.4073 1.94957L16.5631 4.53336L19.1467 5.68929C19.4423 5.82153 19.6195 6.12837 19.5865 6.45045L19.2979 9.26547L20.9545 11.5611C21.1435 11.8231 21.1435 12.1769 20.9545 12.4389L19.2981 14.7343L19.5865 17.5503C19.6195 17.8722 19.4421 18.1791 19.1467 18.3113L16.5631 19.467L15.4075 22.0503C15.3725 22.1285 15.3242 22.1969 15.2678 22.2568L17.5504 22.4903C17.8743 22.5231 18.1792 22.3458 18.3114 22.0503L19.467 19.467L22.0506 18.3113C22.3459 18.179 22.5234 17.8722 22.4904 17.5503L22.202 14.7343L23.8584 12.4389C24.0473 12.1769 24.0473 11.8231 23.8584 11.5611Z" fill="#FE1313"/>
<path d="M6.32118 9.24219H4.125C3.81427 9.24219 3.5625 9.49395 3.5625 9.80469V14.1956C3.5625 14.5063 3.81427 14.7581 4.125 14.7581C4.43569 14.7581 4.6875 14.5063 4.6875 14.1956V12.5624H5.88136C6.19209 12.5624 6.44385 12.3105 6.44385 11.9999C6.44385 11.6894 6.19209 11.4374 5.88136 11.4374H4.6875V10.3672H6.32118C6.63192 10.3672 6.88368 10.1154 6.88368 9.80469C6.88368 9.49395 6.63192 9.24219 6.32118 9.24219Z" fill="white"/>
<path d="M15.3574 10.3667C15.6682 10.3665 15.9197 10.1145 15.9197 9.80381C15.9196 9.49326 15.6678 9.24164 15.3572 9.24164H15.3571L13.1614 9.2422C12.8509 9.24239 12.5991 9.49415 12.5991 9.8047V14.1961C12.5991 14.3451 12.6585 14.4883 12.7639 14.5938C12.8694 14.6993 13.0124 14.7586 13.1617 14.7586H13.1619L15.3575 14.7579C15.6682 14.7579 15.9198 14.5059 15.9198 14.1952C15.9196 13.8846 15.6678 13.6329 15.3573 13.6329H15.3571L13.7242 13.6333V12.5625L14.918 12.5623C15.2286 12.5621 15.4803 12.3104 15.4803 11.9996C15.4803 11.6891 15.2284 11.4373 14.9178 11.4373H14.9176L13.7242 11.4375V10.3671L15.3574 10.3667Z" fill="white"/>
<path d="M19.8751 13.6329L18.2419 13.6331V12.5625L19.4358 12.5623C19.7465 12.5621 19.9983 12.3104 19.9983 11.9996C19.9983 11.6891 19.7463 11.4371 19.4358 11.4373L18.2419 11.4375V10.3671L19.8753 10.3667C20.186 10.3665 20.4377 10.1145 20.4376 9.80381C20.4374 9.49326 20.1856 9.24164 19.8751 9.24164H19.8749L17.6793 9.2422C17.3687 9.24239 17.1169 9.49415 17.1169 9.8047V14.1956C17.1169 14.3448 17.1763 14.488 17.2818 14.5935C17.3872 14.699 17.5304 14.7581 17.6795 14.7581L19.8751 14.7579C20.1858 14.7579 20.4376 14.506 20.4376 14.1954C20.4376 13.8847 20.1856 13.6329 19.8751 13.6329Z" fill="white"/>
<path d="M10.1109 12.5625H10.7289C11.0397 12.5625 11.2914 12.3105 11.2914 12V9.80475C11.2914 9.49401 11.0397 9.24225 10.7289 9.24225H8.53369C8.22296 9.24225 7.97119 9.49401 7.97119 9.80475V14.1956C7.97119 14.5063 8.22296 14.7581 8.53369 14.7581C8.84442 14.7581 9.09619 14.5063 9.09619 14.1956V13.1386L10.551 14.5935C10.6608 14.7034 10.8047 14.7582 10.9487 14.7582C11.0926 14.7582 11.2365 14.7032 11.3464 14.5935C11.5662 14.3738 11.5662 14.0177 11.3464 13.798L10.1109 12.5625ZM9.09619 10.3672H10.1664V11.4375H9.09619V10.3672Z" fill="white"/>
</g>
<defs>
<clipPath id="clip0_21_1148">
<rect width="24" height="24" fill="white"/>
</clipPath>
</defs>
</svg>
