<svg width="64" height="64" viewBox="0 0 64 64" fill="none" xmlns="http://www.w3.org/2000/svg">
<ellipse opacity="0.8" cx="31.6817" cy="31.6627" rx="13.2008" ry="13.1928" fill="#FF6954"/>
<ellipse cx="31.6817" cy="31.6627" rx="13.2008" ry="13.1928" fill="white"/>
<path d="M31.6817 18.47C24.4078 18.47 18.481 24.3933 18.481 31.6627C18.481 38.9322 24.4078 44.8555 31.6817 44.8555C38.9556 44.8555 44.8825 38.9322 44.8825 31.6627C44.8825 24.3933 38.9556 18.47 31.6817 18.47ZM32.7593 36.3744C32.7593 36.9129 32.3552 37.4515 31.6817 37.4515C31.0082 37.4515 30.6041 37.0475 30.6041 36.3744V30.9896C30.6041 30.4511 31.0082 29.9127 31.6817 29.9127C32.3552 29.9127 32.7593 30.3166 32.7593 30.9896V36.3744ZM31.6817 28.2972C31.0082 28.2972 30.3347 27.6241 30.3347 26.951C30.3347 26.2779 31.0082 25.6048 31.6817 25.6048C32.3552 25.6048 33.0287 26.2779 33.0287 26.951C33.0287 27.6241 32.3552 28.2972 31.6817 28.2972Z" fill="#FF6954"/>
</svg>
