<svg width="32" height="32" viewBox="0 0 32 32" fill="none" xmlns="http://www.w3.org/2000/svg">
<g clip-path="url(#clip0_20_1574)">
<path opacity="0.2" d="M26 32H6C2.68604 32 0 29.314 0 26V6C0 2.68604 2.68604 0 6 0H26C29.314 0 32 2.68604 32 6V26C32 29.314 29.314 32 26 32Z" fill="#97AEE9"/>
<path d="M16 8C11.5891 8 8 11.5891 8 16C8 20.4109 11.5891 24 16 24C20.4109 24 24 20.4109 24 16C24 11.5891 20.4109 8 16 8ZM20.0549 14.3049L15.7219 18.6379C15.592 18.7681 15.4209 18.833 15.251 18.833C15.0801 18.833 14.9099 18.7681 14.78 18.6379L12.613 16.4709C12.353 16.2109 12.353 15.7891 12.613 15.5281C12.873 15.2671 13.2949 15.2681 13.5559 15.5281L15.251 17.2229L19.113 13.3611C19.373 13.1011 19.7949 13.1011 20.0559 13.3611C20.3169 13.6211 20.3149 14.0439 20.0549 14.3049Z" fill="#97AEE9"/>
<g clip-path="url(#clip1_20_1574)">
<path d="M16 8C11.5886 8 8 11.5886 8 16C8 20.4114 11.5886 24 16 24C20.4114 24 24 20.4114 24 16C24 11.5886 20.4114 8 16 8Z" fill="#525DBA"/>
<path d="M16.6672 20C16.6672 20.3682 16.3688 20.6666 16.0006 20.6666C15.6324 20.6666 15.334 20.3682 15.334 20C15.334 19.6318 15.6324 19.3334 16.0006 19.3334C16.3688 19.3334 16.6672 19.6318 16.6672 20Z" fill="#ECEFF1"/>
<path d="M17.0553 16.428C16.8193 16.5366 16.6666 16.7747 16.6666 17.0341V17.3334C16.6666 17.7013 16.3687 18 16 18C15.6313 18 15.3334 17.7013 15.3334 17.3334V17.0341C15.3334 16.256 15.7906 15.5427 16.4967 15.2167C17.176 14.9041 17.6666 14.074 17.6666 13.6666C17.6666 12.748 16.9193 12 16 12C15.0807 12 14.3334 12.748 14.3334 13.6666C14.3334 14.0347 14.0353 14.3334 13.6666 14.3334C13.298 14.3334 13 14.0347 13 13.6666C13 12.0127 14.3459 10.6666 16 10.6666C17.6541 10.6666 19 12.0127 19 13.6666C19 14.5674 18.2186 15.8914 17.0553 16.428Z" fill="#FAFAFA"/>
</g>
</g>
<defs>
<clipPath id="clip0_20_1574">
<rect width="32" height="32" fill="white"/>
</clipPath>
<clipPath id="clip1_20_1574">
<rect width="16" height="16" fill="white" transform="translate(8 8)"/>
</clipPath>
</defs>
</svg>
