<?xml version="1.0" encoding="utf-8"?>
<!-- Generator: Adobe Illustrator 25.2.1, SVG Export Plug-In . SVG Version: 6.00 Build 0)  -->
<svg version="1.1" id="Слой_1" xmlns="http://www.w3.org/2000/svg" xmlns:xlink="http://www.w3.org/1999/xlink" x="0px" y="0px"
	 viewBox="0 0 400 369" style="enable-background:new 0 0 400 369;" xml:space="preserve">
<style type="text/css">
	.st0{fill:none;stroke:#F3F3F3;}
</style>
<path class="st0" d="M300.2,123.3l49.9,46.4c4.2,3.9,6.5,9.2,6.5,14.7c0,5.5-2.4,10.8-6.5,14.7l-49.9,46.4l32.8,30.6l67-62.3V155
	l-67-62.3L300.2,123.3z M99.8,123.3L67,92.7L0,155v58.9l67,62.3l32.9-30.6L50,199.3c-2.1-1.9-3.7-4.2-4.9-6.8
	c-1.1-2.5-1.7-5.2-1.7-8c0-2.7,0.6-5.4,1.7-8c1.1-2.5,2.8-4.8,4.9-6.8L99.8,123.3z M217.4,322.5c-2.1,1.9-4.5,3.5-7.3,4.5
	c-2.7,1-5.6,1.6-8.6,1.6c-2.9,0-5.9-0.5-8.6-1.6c-2.7-1-5.2-2.6-7.3-4.5l-49.9-46.4l-32.8,30.5l67,62.3h63.3l67-62.3l-32.8-30.5
	L217.4,322.5z"/>
<path class="st0" d="M186,46.5c2.1-1.9,4.5-3.5,7.3-4.5c2.7-1,5.6-1.6,8.6-1.6c2.9,0,5.9,0.5,8.6,1.6c2.7,1,5.2,2.6,7.3,4.5
	l49.9,46.4l32.8-30.5L233.4,0L170,0l-67,62.3l32.8,30.5L186,46.5z"/>
</svg>
