<?xml version="1.0" encoding="utf-8"?>
<!-- Generator: Adobe Illustrator 25.2.1, SVG Export Plug-In . SVG Version: 6.00 Build 0)  -->
<svg version="1.1" id="Слой_1" xmlns="http://www.w3.org/2000/svg" xmlns:xlink="http://www.w3.org/1999/xlink" x="0px" y="0px"
	 viewBox="0 0 473 284" style="enable-background:new 0 0 473 284;" xml:space="preserve">
<style type="text/css">
	.st0{fill:none;stroke:#F3F3F3;stroke-miterlimit:10;}
</style>
<path class="st0" d="M420.7,137.9c0.8-0.5,1.6-0.8,2.6-0.8h49.2V74.4L394.6,0.5H72.1L0.5,69.6v71.1h96.3v88.1h219.5
	c5.5,0,10.9,1,16,3c5,2,9.6,5,13.5,8.7l44.5,42.9h82.1v-88.8l-52.5-50c-0.6-0.6-1.1-1.4-1.3-2.3c-0.2-0.9-0.1-1.8,0.3-2.6
	C419.3,139.1,419.9,138.4,420.7,137.9z M393.5,137.7c-0.4,0.9-1,1.6-1.8,2.1c-0.8,0.5-1.8,0.8-2.7,0.8H96.9v-26.7
	c0-3.7,0.8-7.4,2.2-10.8c1.5-3.4,3.6-6.5,6.3-9.2c5.5-5.3,13-8.3,20.7-8.3h217.4l48.8,47c0.7,0.7,1.1,1.5,1.3,2.4
	C394,135.9,393.9,136.8,393.5,137.7z"/>
</svg>
