<svg width="24" height="24" viewBox="0 0 24 24" fill="none" xmlns="http://www.w3.org/2000/svg">
<path d="M18.6667 2H5.33333C3.44444 2 2 3.44444 2 5.33333V18.6667C2 20.5556 3.44444 22 5.33333 22H18.6667C20.5556 22 22 20.5556 22 18.6667V5.33333C22 3.44444 20.5556 2 18.6667 2ZM12 8.66667C13.8889 8.66667 15.3333 10.1111 15.3333 12C15.3333 13.8889 13.8889 15.3333 12 15.3333C10.1111 15.3333 8.66667 13.8889 8.66667 12C8.66667 10.1111 10.1111 8.66667 12 8.66667ZM16.2222 6.44444C16.2222 5.66667 16.8889 5.11111 17.5556 5.11111C18.2222 5.11111 18.8889 5.77778 18.8889 6.44444C18.8889 7.11111 18.3333 7.77778 17.5556 7.77778C16.7778 7.77778 16.2222 7.22222 16.2222 6.44444ZM18.6667 19.7778H5.33333C4.66667 19.7778 4.22222 19.3333 4.22222 18.6667V12H6.44444C6.44444 15.1111 8.88889 17.5556 12 17.5556C15.1111 17.5556 17.5556 15.1111 17.5556 12H19.7778V18.6667C19.7778 19.3333 19.3333 19.7778 18.6667 19.7778Z" fill="white"/>
</svg>
