<svg width="176" height="44" viewBox="0 0 176 44" fill="none" xmlns="http://www.w3.org/2000/svg">
<g clip-path="url(#clip0_228_4578)">
<path d="M30.8095 5.32568L25.2246 10.9577L27.9629 13.7191L32.1219 9.52504C32.2952 9.35002 32.501 9.21116 32.7276 9.11642C32.9541 9.02168 33.197 8.97292 33.4422 8.97292C33.6875 8.97292 33.9303 9.02168 34.1569 9.11642C34.3834 9.21116 34.5892 9.35002 34.7625 9.52504L38.9215 13.7191L41.6598 10.9577L36.075 5.32568H30.8095Z" fill="#FE5442"/>
<path d="M41.668 16.4753L45.8269 20.6694C46.1765 21.0225 46.3729 21.501 46.3729 22C46.3729 22.4989 46.1765 22.9774 45.8269 23.3305L41.668 27.5246L44.4063 30.2878L49.9912 24.6558V19.3371L44.4063 13.7051L41.668 16.4753Z" fill="#FE5442"/>
<path d="M25.2312 16.4756L22.4911 13.7124L16.9062 19.3444V24.6702L22.4911 30.3022L25.2312 27.539L21.0722 23.3449C20.8987 23.1703 20.761 22.9629 20.6671 22.7346C20.5732 22.5063 20.5249 22.2615 20.5249 22.0143C20.5249 21.7671 20.5732 21.5224 20.6671 21.2941C20.761 21.0658 20.8987 20.8584 21.0722 20.6838L25.2312 16.4756Z" fill="#FE5442"/>
<path d="M34.7684 34.4817C34.5951 34.6567 34.3893 34.7956 34.1627 34.8903C33.9362 34.985 33.6933 35.0338 33.4481 35.0338C33.2028 35.0338 32.96 34.985 32.7334 34.8903C32.5069 34.7956 32.3011 34.6567 32.1278 34.4817L27.9688 30.2876L25.2305 33.049L30.8153 38.681H36.0965L41.6814 33.049L38.9431 30.2876L34.7684 34.4817Z" fill="#FE5442"/>
<path d="M62.3068 16.9312L65.93 27.1638H63.9352L63.1673 24.9568H59.3696L58.6016 27.1638H56.6016L60.2247 16.9312H62.3068ZM61.2597 19.5043L59.9839 23.2003H62.5494L61.2876 19.5043H61.2597Z" fill="#FE5442"/>
<path d="M69.9536 18.6858V27.1637H67.9239V18.6858H65.1855V16.9258H72.6902V18.6858H69.9536Z" fill="#FE5442"/>
<path d="M76.1966 22.7779V25.4179H80.2404V27.1779H74.1738V16.9312H80.2456V18.6912H76.1966V21.0302H79.3712V22.7902L76.1966 22.7779Z" fill="#FE5442"/>
<path d="M85.8289 27.2358H83.4659L81.7852 26.2573V17.8374L83.4659 16.8589H88.0036L89.6843 17.8374V26.2573L88.0036 27.2358L89.6406 30.087H87.4224L85.8289 27.2358ZM83.8149 18.6118V25.4758H87.6545V18.6118H83.8149Z" fill="#FE5442"/>
<path d="M48.7406 7.23002L48.9971 7.07866V6.33594L48.7179 6.17578H47.8086V7.7897H48.2205V7.24234H48.3077L48.6201 7.79322H49.0687L48.7406 7.23002ZM48.5852 6.88858H48.2205V6.53658H48.5852V6.88858Z" fill="#FE5442"/>
<path d="M48.3303 5.47725C48.6265 5.4769 48.9162 5.56517 49.1627 5.73089C49.4092 5.8966 49.6014 6.13232 49.715 6.40822C49.8286 6.68412 49.8585 6.98781 49.8009 7.28085C49.7433 7.57389 49.6009 7.84313 49.3915 8.05449C49.1822 8.26586 48.9153 8.40985 48.6248 8.46826C48.3343 8.52667 48.0331 8.49687 47.7594 8.38263C47.4857 8.26838 47.2517 8.07484 47.0871 7.82647C46.9225 7.5781 46.8346 7.28607 46.8346 6.98733C46.8351 6.58728 46.9927 6.20372 47.2731 5.92068C47.5534 5.63763 47.9336 5.47818 48.3303 5.47725ZM48.3303 5.31885C48.0031 5.31885 47.6832 5.4167 47.4111 5.60004C47.139 5.78337 46.9269 6.04395 46.8017 6.34883C46.6765 6.6537 46.6437 6.98918 46.7076 7.31283C46.7714 7.63649 46.929 7.93378 47.1604 8.16712C47.3918 8.40046 47.6866 8.55937 48.0075 8.62375C48.3285 8.68813 48.6611 8.65509 48.9635 8.5288C49.2658 8.40252 49.5242 8.18867 49.706 7.91429C49.8878 7.63991 49.9848 7.31732 49.9848 6.98733C49.9848 6.54482 49.8105 6.12043 49.5002 5.80753C49.1899 5.49463 48.7691 5.31885 48.3303 5.31885Z" fill="#FE5442"/>
<path d="M5.74717 40.0893C5.50179 40.0895 5.25877 40.041 5.032 39.9464C4.80523 39.8519 4.59916 39.7132 4.42557 39.5383C4.25197 39.3634 4.11426 39.1558 4.02031 38.9272C3.92635 38.6986 3.87799 38.4535 3.87799 38.2061V35.8336V5.79392C3.87799 5.54647 3.92635 5.30144 4.02031 5.07284C4.11426 4.84425 4.25197 4.63657 4.42557 4.46167C4.59916 4.28678 4.80523 4.1481 5.032 4.05356C5.25877 3.95903 5.50179 3.91049 5.74717 3.91072H11.634V0H3.73837C2.27758 1.47136 1.45905 2.2968 0 3.76992V35.8336V40.2336L3.73837 44H11.634V40.0893H5.74717Z" fill="#FE5442"/>
<path d="M172.258 0H97.6055V44H172.258L175.996 40.2301V3.76992C174.54 2.2968 173.722 1.47136 172.258 0Z" fill="#FE5442"/>
<path d="M135.028 21.7644C135.071 21.7356 135.121 21.7203 135.173 21.7204H137.965V18.0596L133.551 13.7476H115.264L111.203 17.7762V21.9245H116.664V27.0672H129.111C129.422 27.0664 129.73 27.1262 130.019 27.2432C130.305 27.3614 130.566 27.5348 130.787 27.7536L133.309 30.2581H137.967V25.0784L134.989 22.1639C134.953 22.1282 134.927 22.0822 134.916 22.0319C134.906 21.9816 134.912 21.9294 134.932 21.8823C134.951 21.834 134.985 21.7928 135.028 21.7644ZM133.488 21.752C133.468 21.8025 133.433 21.8455 133.387 21.8752C133.341 21.9061 133.287 21.9221 133.232 21.921H116.669V20.3616C116.67 20.1444 116.713 19.9294 116.796 19.7291C116.879 19.5288 117.001 19.3472 117.155 19.1948C117.468 18.8847 117.89 18.7104 118.329 18.709H130.659L133.427 21.4528C133.466 21.4913 133.492 21.5403 133.502 21.5936C133.515 21.6465 133.51 21.7023 133.488 21.752Z" fill="white"/>
<path d="M150.191 24.2882C150.442 24.2182 150.666 24.0742 150.835 23.8746C150.997 23.6722 151.081 23.418 151.072 23.1583C151.077 22.9838 151.04 22.8108 150.966 22.6532C150.897 22.5065 150.796 22.3773 150.671 22.2748C150.538 22.1652 150.384 22.0833 150.219 22.0336C150.033 21.9742 149.838 21.9451 149.643 21.9474H148.188V25.6434H148.711V24.3674H149.613L150.631 25.6434H151.27L150.191 24.2882ZM149.627 23.8869H148.708V22.4244H149.627C149.752 22.4236 149.877 22.4408 149.997 22.4754C150.103 22.5054 150.203 22.5543 150.292 22.6197C150.374 22.6799 150.44 22.7582 150.486 22.8485C150.536 22.9411 150.561 23.0457 150.558 23.1512C150.561 23.259 150.537 23.3659 150.486 23.461C150.44 23.5513 150.374 23.6296 150.292 23.6898C150.203 23.7552 150.103 23.8041 149.997 23.8341C149.877 23.8693 149.753 23.887 149.627 23.8869Z" fill="white"/>
<path d="M139.703 15.1853C139.71 15.1304 139.701 15.0747 139.677 15.0251C139.654 14.9747 139.617 14.9319 139.57 14.9019C139.578 14.8917 139.586 14.8823 139.595 14.8737C139.661 14.8217 139.708 14.7485 139.727 14.6661C139.748 14.5843 139.74 14.4979 139.705 14.4214C139.68 14.3524 139.633 14.294 139.57 14.256C139.509 14.2159 139.436 14.1974 139.363 14.2032H138.652V15.5725H138.871V15.011H139.284C139.422 15.011 139.478 15.0656 139.485 15.2029V15.312C139.492 15.3871 139.503 15.4617 139.518 15.5355C139.523 15.5467 139.531 15.5564 139.541 15.5637C139.55 15.5723 139.561 15.5779 139.574 15.5795H139.775C139.775 15.5496 139.775 15.5249 139.775 15.5144C139.71 15.4181 139.684 15.3002 139.703 15.1853ZM139.494 14.696C139.475 14.7361 139.444 14.7684 139.405 14.7875C139.364 14.8034 139.321 14.8118 139.277 14.8121H138.871V14.4073C139.045 14.4073 139.2 14.4073 139.364 14.4073C139.404 14.4111 139.44 14.4293 139.467 14.4584C139.481 14.4729 139.492 14.49 139.499 14.5088C139.505 14.5276 139.508 14.5475 139.508 14.5675C139.519 14.6106 139.514 14.6565 139.494 14.696Z" fill="white"/>
<path d="M140.167 14.2401C140.038 14.0464 139.856 13.8947 139.643 13.8036C139.426 13.7131 139.187 13.6886 138.956 13.733C138.725 13.7774 138.512 13.8888 138.343 14.0535C138.176 14.2162 138.061 14.4255 138.013 14.6544C137.965 14.8834 137.987 15.1216 138.074 15.3383C138.164 15.5531 138.315 15.7366 138.507 15.8663C138.702 15.9982 138.931 16.0703 139.167 16.074C139.324 16.0757 139.481 16.0458 139.627 15.986C139.773 15.9285 139.906 15.8417 140.018 15.7308C140.131 15.6223 140.221 15.4918 140.282 15.3471C140.343 15.2029 140.375 15.048 140.376 14.8913C140.372 14.6581 140.299 14.4314 140.167 14.2401ZM140.088 15.275C140.039 15.3972 139.967 15.5089 139.877 15.6041C139.784 15.6985 139.673 15.7733 139.552 15.8244C139.43 15.8755 139.299 15.9018 139.167 15.9018C139.036 15.9018 138.905 15.8755 138.783 15.8244C138.662 15.7733 138.551 15.6985 138.458 15.6041C138.368 15.5089 138.296 15.3972 138.247 15.275C138.2 15.1528 138.179 15.0222 138.184 14.8913C138.184 14.7624 138.209 14.6348 138.259 14.5158C138.308 14.3968 138.38 14.2887 138.47 14.1979C138.656 14.0117 138.907 13.9072 139.168 13.9072C139.43 13.9072 139.681 14.0117 139.866 14.1979C139.959 14.2896 140.032 14.3993 140.081 14.5203C140.13 14.6413 140.155 14.7711 140.153 14.9019C140.156 15.0293 140.134 15.1562 140.088 15.275Z" fill="white"/>
<path d="M144.245 24.0485C144.096 23.8733 143.889 23.7593 143.662 23.7281C143.839 23.6746 143.993 23.5631 144.1 23.4113C144.207 23.2566 144.261 23.0716 144.256 22.8833C144.26 22.7502 144.233 22.6179 144.177 22.4976C144.12 22.3772 144.036 22.2723 143.931 22.1916C143.666 22.0097 143.349 21.9207 143.029 21.9382H141.367V25.6342H143.076C143.265 25.6358 143.455 25.6116 143.638 25.5621C143.79 25.5181 143.934 25.4479 144.062 25.3544C144.175 25.271 144.267 25.1626 144.332 25.0376C144.397 24.9097 144.43 24.7677 144.428 24.624C144.434 24.4167 144.369 24.2138 144.245 24.0485ZM141.891 22.4064H142.969C143.173 22.3938 143.376 22.4448 143.551 22.5525C143.614 22.5978 143.666 22.6582 143.701 22.7285C143.736 22.7987 143.753 22.8769 143.749 22.9555C143.753 23.04 143.736 23.1241 143.699 23.2001C143.661 23.2766 143.606 23.343 143.538 23.3937C143.357 23.5121 143.143 23.5683 142.927 23.5539H141.891V22.4064ZM143.859 24.8158C143.82 24.8915 143.763 24.9566 143.694 25.0059C143.507 25.1344 143.282 25.1963 143.057 25.1819H141.891V24.015H143.074C143.29 24.0027 143.504 24.0515 143.694 24.1558C143.766 24.1977 143.827 24.2585 143.868 24.3318C143.908 24.4051 143.926 24.4879 143.922 24.5712C143.921 24.6566 143.899 24.7404 143.859 24.8158Z" fill="white"/>
<path d="M156.633 28.7778H158.081L157.357 27.1182L156.633 28.7778Z" fill="white"/>
<path d="M155.967 21.9473H158.611V22.426H156.487V23.57H158.398V24.0487H156.487V25.161H158.611V25.6397H155.967V21.9473Z" fill="white"/>
<path d="M144.98 21.9473H147.626V22.426H145.502V23.57H147.413V24.0487H145.502V25.161H147.626V25.6397H144.98V21.9473Z" fill="white"/>
<path d="M142.118 27.704C142.148 27.7684 142.195 27.8241 142.252 27.8659C142.405 27.97 142.579 28.0369 142.762 28.0613L143.285 28.1651C143.573 28.2064 143.846 28.3196 144.079 28.4942C144.173 28.5743 144.247 28.6749 144.296 28.7882C144.343 28.8991 144.365 29.0195 144.359 29.1402C144.361 29.3008 144.326 29.4599 144.257 29.6048C144.189 29.7425 144.09 29.8629 143.969 29.9568C143.837 30.0619 143.686 30.1407 143.524 30.1891C143.336 30.2449 143.141 30.2722 142.945 30.2701C142.551 30.2896 142.162 30.1715 141.844 29.9357C141.704 29.8216 141.589 29.6794 141.507 29.5182C141.425 29.357 141.378 29.1803 141.367 28.9994H141.891C141.922 29.2348 142.043 29.4486 142.229 29.5942C142.448 29.7477 142.711 29.8232 142.976 29.809C143.196 29.8204 143.414 29.7626 143.599 29.6435C143.673 29.5948 143.733 29.5282 143.774 29.4499C143.805 29.376 143.817 29.2957 143.811 29.2158C143.81 29.089 143.76 28.9675 143.671 28.8779C143.536 28.7578 143.367 28.6844 143.188 28.6685L142.556 28.5488C142.265 28.5133 141.991 28.3907 141.77 28.1968C141.686 28.1104 141.62 28.0081 141.575 27.8958C141.532 27.7837 141.512 27.664 141.516 27.5438C141.514 27.3913 141.546 27.2403 141.61 27.1021C141.676 26.9652 141.772 26.8449 141.891 26.7501C142.017 26.6476 142.162 26.5705 142.317 26.523C142.498 26.4684 142.687 26.4423 142.877 26.4456C143.049 26.4454 143.22 26.4667 143.386 26.509C143.549 26.5474 143.704 26.6141 143.844 26.7061C143.99 26.8008 144.112 26.9285 144.201 27.0791C144.29 27.2296 144.344 27.399 144.357 27.5738H143.833C143.803 27.3791 143.703 27.2025 143.552 27.0774C143.363 26.9408 143.133 26.8749 142.901 26.8909C142.686 26.8805 142.473 26.9384 142.292 27.0563C142.218 27.106 142.158 27.1739 142.118 27.2534C142.078 27.333 142.059 27.4214 142.062 27.5104C142.065 27.5785 142.084 27.645 142.118 27.704Z" fill="white"/>
<path d="M147.79 26.9931H146.445V30.2068H145.925V26.9931H144.586V26.5161H147.79V26.9931Z" fill="white"/>
<path d="M148.79 26.5142H148.27V30.2049H148.79V26.5142Z" fill="white"/>
<path d="M152.176 30.2068H149.633V26.5161H150.153V29.7387H152.176V30.2068Z" fill="white"/>
<path d="M151.722 24.8707C151.516 24.5624 151.407 24.1988 151.408 23.827C151.407 23.5582 151.459 23.2918 151.562 23.0438C151.712 22.6922 151.963 22.3937 152.283 22.1867C152.605 21.9772 152.981 21.8677 153.365 21.8717C153.563 21.8718 153.761 21.9015 153.951 21.9597C154.138 22.0152 154.314 22.1002 154.475 22.2114C154.635 22.3244 154.775 22.4643 154.888 22.625C155.007 22.7969 155.094 22.9897 155.143 23.1934H154.585C154.543 23.0551 154.474 22.9265 154.382 22.815C154.298 22.7141 154.198 22.6284 154.085 22.5616C153.977 22.4962 153.859 22.4476 153.736 22.4173C153.426 22.3399 153.1 22.3608 152.803 22.4771C152.631 22.5451 152.474 22.6474 152.342 22.7781C152.21 22.9073 152.106 23.0633 152.038 23.2357C151.963 23.4234 151.925 23.6245 151.928 23.827C151.928 24.0083 151.963 24.1879 152.033 24.355C152.1 24.5203 152.197 24.671 152.321 24.7986C152.446 24.9276 152.596 25.0299 152.761 25.0995C152.941 25.1758 153.136 25.2135 153.332 25.2104C153.494 25.2135 153.656 25.186 153.808 25.1294C153.946 25.0781 154.073 25.0017 154.183 24.9042C154.291 24.8081 154.381 24.6937 154.45 24.5662C154.523 24.432 154.574 24.2871 154.602 24.1368H153.3V23.6581H155.155V25.6346H154.74L154.702 24.9552C154.573 25.1842 154.387 25.3749 154.162 25.5078C153.907 25.6499 153.618 25.7198 153.326 25.7102C153.064 25.7116 152.805 25.6614 152.562 25.5624C152.221 25.4198 151.929 25.1793 151.722 24.8707Z" fill="white"/>
<path d="M155.248 30.2068H152.705V26.5161H153.225V29.7387H155.248V30.2068Z" fill="white"/>
<path d="M158.699 30.2068L158.282 29.2564H156.425L156.01 30.2068H155.451L157.107 26.4932H157.6L159.256 30.2068H158.699Z" fill="white"/>
<path d="M160.151 27.7041C160.182 27.7682 160.228 27.8237 160.285 27.866C160.438 27.9701 160.612 28.037 160.795 28.0614L161.318 28.1652C161.607 28.2072 161.88 28.3202 162.114 28.4943C162.207 28.5746 162.281 28.6751 162.329 28.7883C162.377 28.8991 162.399 29.0195 162.394 29.1403C162.395 29.3011 162.36 29.4601 162.291 29.6049C162.223 29.7426 162.125 29.863 162.004 29.9569C161.871 30.062 161.72 30.1408 161.558 30.1892C161.37 30.245 161.175 30.2723 160.98 30.2702C160.585 30.2899 160.195 30.1718 159.877 29.9358C159.738 29.821 159.624 29.6787 159.542 29.5176C159.46 29.3565 159.412 29.1801 159.4 28.9995H159.924C159.938 29.1161 159.976 29.2288 160.033 29.3309C160.091 29.433 160.169 29.5225 160.261 29.5943C160.479 29.7475 160.742 29.8231 161.008 29.8091C161.227 29.8205 161.445 29.7627 161.631 29.6436C161.704 29.5949 161.764 29.5283 161.805 29.45C161.845 29.3731 161.865 29.2869 161.861 29.2001C161.862 29.1373 161.85 29.0751 161.826 29.0171C161.803 28.959 161.768 28.9064 161.723 28.8622C161.588 28.7423 161.418 28.669 161.238 28.6527L160.608 28.5331C160.317 28.498 160.043 28.3753 159.823 28.1811C159.738 28.0952 159.671 27.9928 159.627 27.8801C159.583 27.7682 159.563 27.6483 159.568 27.5281C159.565 27.3755 159.597 27.2243 159.662 27.0863C159.728 26.9495 159.824 26.8293 159.941 26.7343C160.069 26.6318 160.215 26.5547 160.371 26.5073C160.551 26.4534 160.739 26.4273 160.928 26.4299C161.099 26.4297 161.27 26.4509 161.437 26.4932C161.6 26.5313 161.755 26.5981 161.894 26.6903C162.034 26.7817 162.153 26.9016 162.243 27.0423C162.341 27.1986 162.401 27.3759 162.418 27.5598H161.894C161.864 27.3656 161.765 27.1892 161.615 27.0635C161.425 26.9271 161.195 26.8612 160.962 26.8769C160.748 26.8663 160.535 26.9242 160.355 27.0423C160.281 27.0921 160.221 27.1599 160.181 27.2395C160.139 27.3184 160.119 27.4071 160.123 27.4964C160.116 27.5669 160.125 27.6381 160.151 27.7041Z" fill="white"/>
<path d="M162.395 25.6397H161.969L159.69 22.9029V25.6397H159.17V21.9473H159.58L161.873 24.7263V21.9473H162.399L162.395 25.6397Z" fill="white"/>
</g>
<defs>
<clipPath id="clip0_228_4578">
<rect width="176" height="44" fill="white"/>
</clipPath>
</defs>
</svg>
