<svg width="192" height="44" viewBox="0 0 192 44" fill="none" xmlns="http://www.w3.org/2000/svg">
<g clip-path="url(#clip0_34_331)">
<path d="M33.61 5.32568L27.5175 10.9577L30.5047 13.7191L35.0418 9.52504C35.2308 9.35002 35.4553 9.21116 35.7025 9.11642C35.9496 9.02168 36.2146 8.97292 36.4821 8.97292C36.7497 8.97292 37.0146 9.02168 37.2617 9.11642C37.5089 9.21116 37.7334 9.35002 37.9224 9.52504L42.4595 13.7191L45.4468 10.9577L39.3542 5.32568H33.61Z" fill="white"/>
<path d="M45.4563 16.4753L49.9934 20.6694C50.3747 21.0225 50.5889 21.501 50.5889 22C50.5889 22.4989 50.3747 22.9774 49.9934 23.3305L45.4563 27.5246L48.4436 30.2878L54.5361 24.6558V19.3371L48.4436 13.7051L45.4563 16.4753Z" fill="white"/>
<path d="M27.5251 16.4754L24.5359 13.7122L18.4434 19.3442V24.6699L24.5359 30.3019L27.5251 27.5387L22.988 23.3446C22.7988 23.17 22.6486 22.9626 22.5461 22.7343C22.4437 22.506 22.3909 22.2613 22.3909 22.0141C22.3909 21.7669 22.4437 21.5221 22.5461 21.2938C22.6486 21.0655 22.7988 20.8581 22.988 20.6835L27.5251 16.4754Z" fill="white"/>
<path d="M37.9301 34.4819C37.7411 34.6569 37.5166 34.7958 37.2694 34.8905C37.0223 34.9853 36.7574 35.034 36.4898 35.034C36.2222 35.034 35.9573 34.9853 35.7102 34.8905C35.463 34.7958 35.2385 34.6569 35.0495 34.4819L30.5124 30.2878L27.5251 33.0493L33.6177 38.6813H39.379L45.4716 33.0493L42.4843 30.2878L37.9301 34.4819Z" fill="white"/>
<path d="M67.9703 16.9312L71.9228 27.1638H69.7467L68.9089 24.9568H64.766L63.9282 27.1638H61.7463L65.6989 16.9312H67.9703ZM66.8279 19.5043L65.4362 23.2003H68.2349L66.8584 19.5043H66.8279Z" fill="white"/>
<path d="M76.3134 18.686V27.1639H74.0991V18.686H71.1118V16.926H79.2987V18.686H76.3134Z" fill="white"/>
<path d="M83.1238 22.7779V25.4179H87.5352V27.1779H80.9171V16.9312H87.5409V18.6912H83.1238V21.0302H86.587V22.7902L83.1238 22.7779Z" fill="white"/>
<path d="M93.6315 27.2361H91.0536L89.2201 26.2575V17.8377L91.0536 16.8591H96.0038L97.8373 17.8377V26.2575L96.0038 27.2361L97.7897 30.0873H95.3698L93.6315 27.2361ZM91.4344 18.6121V25.4761H95.623V18.6121H91.4344Z" fill="white"/>
<path d="M53.1711 7.23002L53.451 7.07866V6.33594L53.1464 6.17578H52.1544V7.7897H52.6037V7.24234H52.6989L53.0397 7.79322H53.5291L53.1711 7.23002ZM53.0017 6.88858H52.6037V6.53658H53.0017V6.88858Z" fill="white"/>
<path d="M52.7236 5.477C53.0468 5.47666 53.3628 5.56492 53.6317 5.73064C53.9006 5.89636 54.1103 6.13208 54.2342 6.40798C54.3581 6.68388 54.3908 6.98756 54.3279 7.28061C54.2651 7.57365 54.1097 7.84288 53.8813 8.05425C53.6529 8.26561 53.3619 8.40961 53.0449 8.46802C52.728 8.52643 52.3994 8.49663 52.1008 8.38238C51.8022 8.26814 51.547 8.07459 51.3674 7.82622C51.1878 7.57785 51.092 7.28582 51.092 6.98708C51.0925 6.58703 51.2645 6.20347 51.5703 5.92043C51.8761 5.63739 52.2909 5.47793 52.7236 5.477ZM52.7236 5.3186C52.3666 5.3186 52.0177 5.41646 51.7209 5.59979C51.424 5.78313 51.1927 6.04371 51.0561 6.34858C50.9195 6.65346 50.8837 6.98893 50.9534 7.31259C51.023 7.63624 51.1949 7.93354 51.4473 8.16688C51.6998 8.40022 52.0214 8.55913 52.3715 8.6235C52.7216 8.68788 53.0845 8.65484 53.4143 8.52856C53.7442 8.40228 54.026 8.18842 54.2244 7.91404C54.4227 7.63966 54.5286 7.31708 54.5286 6.98708C54.5286 6.54458 54.3384 6.12019 53.9999 5.80729C53.6614 5.49439 53.2023 5.3186 52.7236 5.3186Z" fill="white"/>
<path d="M6.26774 40.0893C5.72744 40.0893 5.20927 39.8909 4.82722 39.5377C4.44517 39.1845 4.23053 38.7055 4.23053 38.2061V35.8336V5.79392C4.23053 5.29446 4.44517 4.81546 4.82722 4.4623C5.20927 4.10913 5.72744 3.91072 6.26774 3.91072H12.6916V0H4.07822C2.48463 1.47136 1.59169 2.2968 0 3.76992V35.8336V40.2336L4.07822 44H12.6916V40.0893H6.26774Z" fill="white"/>
<path d="M106.479 0H187.918C189.512 1.47136 190.405 2.2968 191.996 3.76992V35.8336V40.2336L187.918 44H106.479V0Z" fill="white"/>
<path d="M125.743 13.7473L121.313 17.776V21.9243H127.27V27.067H140.849C141.533 27.0643 142.19 27.3117 142.677 27.7552L145.428 30.2596H150.51V25.0782L147.261 22.1636C147.221 22.1279 147.193 22.082 147.181 22.0316C147.171 21.9813 147.177 21.9292 147.199 21.882C147.22 21.8337 147.256 21.7925 147.303 21.7641C147.35 21.7354 147.405 21.7201 147.461 21.7201H150.508V18.0593L145.693 13.7473H125.743ZM145.624 21.7518C145.602 21.8023 145.563 21.8452 145.514 21.875C145.464 21.9059 145.404 21.9218 145.344 21.9208H127.276V20.3614C127.276 20.1442 127.323 19.9292 127.414 19.7289C127.505 19.5286 127.638 19.3469 127.805 19.1945C128.147 18.8844 128.607 18.7102 129.086 18.7088H142.538L145.557 21.4526C145.599 21.491 145.628 21.54 145.639 21.5934C145.653 21.6463 145.648 21.702 145.624 21.7518Z" fill="#3D3F43"/>
<path d="M152.328 13.8036C152.091 13.7131 151.83 13.6886 151.578 13.733C151.326 13.7774 151.094 13.8888 150.909 14.0535C150.727 14.2162 150.602 14.4255 150.55 14.6544C150.498 14.8834 150.521 15.1216 150.616 15.3383C150.715 15.5531 150.879 15.7366 151.088 15.8663C151.302 15.9982 151.552 16.0703 151.808 16.074C151.98 16.0757 152.151 16.0458 152.311 15.986C152.47 15.9285 152.615 15.8417 152.737 15.7308C152.86 15.6223 152.958 15.4918 153.025 15.3471C153.091 15.2029 153.126 15.048 153.127 14.8913C153.127 14.6572 153.051 14.4286 152.909 14.2348C152.765 14.0418 152.563 13.8919 152.328 13.8036ZM152.823 15.275C152.769 15.3972 152.691 15.5089 152.592 15.6041C152.491 15.6985 152.37 15.7733 152.238 15.8244C152.105 15.8755 151.962 15.9018 151.819 15.9018C151.675 15.9018 151.532 15.8755 151.399 15.8244C151.267 15.7733 151.146 15.6985 151.045 15.6041C150.946 15.5089 150.868 15.3972 150.814 15.275C150.763 15.1528 150.74 15.0222 150.746 14.8913C150.746 14.7624 150.773 14.6348 150.827 14.5158C150.881 14.3968 150.959 14.2887 151.058 14.1979C151.26 14.0117 151.534 13.9072 151.819 13.9072C152.105 13.9072 152.379 14.0117 152.581 14.1979C152.682 14.2896 152.761 14.3993 152.815 14.5203C152.869 14.6413 152.895 14.7711 152.893 14.9019C152.897 15.0293 152.873 15.1562 152.823 15.275Z" fill="#3D3F43"/>
<path d="M152.404 15.1853C152.412 15.1304 152.402 15.0747 152.375 15.0251C152.35 14.9747 152.31 14.9319 152.259 14.9019C152.267 14.8917 152.276 14.8823 152.286 14.8737C152.358 14.8217 152.409 14.7485 152.431 14.6661C152.453 14.5843 152.444 14.4979 152.406 14.4214C152.379 14.3524 152.327 14.294 152.259 14.256C152.192 14.2159 152.112 14.1974 152.033 14.2032H151.258V15.5725H151.496V15.011H151.947C152.097 15.011 152.158 15.0656 152.166 15.2029V15.312C152.173 15.3871 152.185 15.4617 152.202 15.5355C152.208 15.5467 152.216 15.5564 152.227 15.5637C152.237 15.5723 152.25 15.5779 152.263 15.5795H152.482C152.482 15.5496 152.482 15.5249 152.482 15.5144C152.411 15.4181 152.383 15.3002 152.404 15.1853ZM152.176 14.696C152.156 14.7361 152.121 14.7684 152.078 14.7875C152.034 14.8034 151.987 14.8118 151.939 14.8121H151.496V14.4073C151.686 14.4073 151.856 14.4073 152.035 14.4073C152.078 14.4111 152.117 14.4293 152.147 14.4584C152.162 14.4729 152.173 14.49 152.181 14.5088C152.188 14.5276 152.192 14.5475 152.191 14.5675C152.203 14.6106 152.198 14.6565 152.176 14.696Z" fill="#3D3F43"/>
<path d="M156.722 23.7284C156.915 23.6748 157.083 23.5633 157.2 23.4116C157.316 23.2569 157.375 23.0718 157.369 22.8836C157.375 22.7505 157.345 22.6182 157.284 22.4978C157.222 22.3774 157.13 22.2725 157.015 22.1919C156.726 22.0099 156.38 21.9209 156.031 21.9385H154.218V25.6345H156.082C156.289 25.6361 156.496 25.6118 156.695 25.5623C156.861 25.5184 157.018 25.4481 157.158 25.3546C157.281 25.2712 157.382 25.1628 157.453 25.0378C157.524 24.9099 157.56 24.7679 157.558 24.6242C157.564 24.4145 157.491 24.2094 157.352 24.0434C157.19 23.8713 156.966 23.7594 156.722 23.7284ZM154.79 22.4066H155.966C156.189 22.3941 156.41 22.4451 156.6 22.5527C156.67 22.598 156.726 22.6585 156.764 22.7287C156.802 22.799 156.821 22.8771 156.817 22.9557C156.821 23.0402 156.802 23.1243 156.762 23.2004C156.721 23.2769 156.661 23.3432 156.587 23.394C156.389 23.5123 156.155 23.5685 155.92 23.5541H154.79V22.4066ZM156.937 24.8161C156.893 24.8914 156.832 24.9564 156.756 25.0061C156.552 25.1346 156.308 25.1965 156.061 25.1821H154.79V24.0153H156.08C156.316 24.003 156.55 24.0518 156.756 24.1561C156.836 24.198 156.901 24.2587 156.947 24.3321C156.99 24.4054 157.01 24.4881 157.006 24.5714C157.004 24.6568 156.981 24.7407 156.937 24.8161Z" fill="#3D3F43"/>
<path d="M161.048 25.161H158.731V24.0487H160.815V23.57H158.731V22.426H161.048V21.9473H158.161V25.6397H161.048V25.161Z" fill="#3D3F43"/>
<path d="M165.017 25.6396L163.845 24.288C164.118 24.218 164.363 24.0739 164.547 23.8744C164.723 23.6719 164.815 23.4178 164.806 23.158C164.811 22.9836 164.771 22.8106 164.69 22.6529C164.614 22.5063 164.505 22.377 164.368 22.2745C164.223 22.165 164.055 22.0831 163.875 22.0334C163.672 21.9739 163.46 21.9448 163.247 21.9472H161.659V25.6432H162.23V24.3672H163.214L164.324 25.6432L165.017 25.6396ZM163.23 23.8796H162.226V22.4171H163.23C163.366 22.4173 163.502 22.4345 163.633 22.4681C163.749 22.4981 163.858 22.547 163.955 22.6124C164.044 22.6726 164.116 22.7509 164.166 22.8412C164.221 22.9341 164.247 23.0385 164.244 23.144C164.248 23.2518 164.221 23.3586 164.166 23.4537C164.116 23.544 164.044 23.6223 163.955 23.6825C163.858 23.7479 163.749 23.7968 163.633 23.8268C163.503 23.8644 163.367 23.8845 163.23 23.8867V23.8796Z" fill="#3D3F43"/>
<path d="M168.182 25.52C168.427 25.387 168.63 25.1963 168.77 24.9673L168.812 25.6467H169.259V23.6632H167.234V24.1419H168.654C168.624 24.2922 168.568 24.4371 168.488 24.5713C168.413 24.6988 168.315 24.8131 168.197 24.9092C168.077 25.0068 167.938 25.0832 167.788 25.1345C167.621 25.1911 167.445 25.2185 167.268 25.2155C167.054 25.2186 166.842 25.1808 166.645 25.1046C166.465 25.035 166.302 24.9326 166.166 24.8036C166.031 24.6764 165.925 24.5264 165.851 24.3619C165.776 24.1946 165.737 24.0151 165.737 23.8339C165.734 23.6313 165.775 23.4303 165.857 23.2425C165.932 23.0705 166.045 22.9146 166.188 22.7849C166.332 22.6543 166.503 22.5519 166.691 22.484C167.016 22.3676 167.372 22.3467 167.71 22.4241C167.844 22.4544 167.972 22.5031 168.09 22.5684C168.213 22.6352 168.323 22.7209 168.414 22.8219C168.514 22.9333 168.589 23.0619 168.635 23.2003H169.244C169.19 22.9965 169.096 22.8038 168.966 22.6318C168.843 22.4711 168.69 22.3312 168.515 22.2182C168.34 22.107 168.147 22.0221 167.944 21.9665C167.736 21.9083 167.521 21.8787 167.304 21.8785C166.886 21.8745 166.475 21.9841 166.124 22.1936C165.775 22.4005 165.501 22.699 165.337 23.0507C165.225 23.2986 165.168 23.565 165.17 23.8339C165.168 24.2056 165.288 24.5692 165.513 24.8776C165.737 25.1915 166.058 25.4365 166.434 25.5816C166.699 25.6805 166.982 25.7308 167.268 25.7294C167.587 25.7371 167.903 25.6647 168.182 25.52Z" fill="#3D3F43"/>
<path d="M173.029 25.161H170.712V24.0487H172.797V23.57H170.712V22.426H173.029V21.9473H170.145V25.6397H173.029V25.161Z" fill="#3D3F43"/>
<path d="M174.208 22.9047L176.694 25.6397H177.159L177.163 21.9473H176.59V24.7263L174.088 21.9473H173.64V25.6397H174.208V22.9047Z" fill="#3D3F43"/>
<path d="M155.239 27.0441C155.436 26.9262 155.669 26.8683 155.903 26.8787C156.157 26.863 156.409 26.9289 156.616 27.0652C156.779 27.191 156.887 27.3674 156.92 27.5615H157.491C157.477 27.3868 157.419 27.2174 157.322 27.0669C157.225 26.9163 157.091 26.7886 156.932 26.6939C156.779 26.6019 156.61 26.5352 156.433 26.4967C156.251 26.4545 156.064 26.4332 155.877 26.4334C155.67 26.4301 155.464 26.4562 155.266 26.5108C155.096 26.5583 154.939 26.6354 154.801 26.7379C154.672 26.8327 154.567 26.953 154.495 27.0899C154.425 27.2281 154.39 27.3791 154.392 27.5316C154.388 27.6518 154.41 27.7715 154.456 27.8836C154.505 27.9959 154.578 28.0982 154.67 28.1846C154.911 28.3785 155.209 28.5011 155.526 28.5366L156.216 28.6563C156.411 28.6722 156.596 28.7456 156.743 28.8657C156.791 28.9124 156.828 28.9674 156.852 29.0276C156.876 29.0878 156.887 29.1518 156.884 29.2159C156.888 29.3027 156.867 29.3889 156.823 29.4659C156.778 29.5441 156.713 29.6107 156.633 29.6595C156.431 29.7793 156.193 29.8372 155.953 29.8249C155.663 29.8392 155.376 29.7636 155.138 29.6102C154.935 29.4645 154.802 29.2508 154.769 29.0153H154.198C154.209 29.1957 154.261 29.3719 154.35 29.5327C154.44 29.6949 154.565 29.8377 154.719 29.9516C155.065 30.1877 155.489 30.3058 155.919 30.286C156.133 30.2882 156.346 30.2609 156.551 30.2051C156.727 30.1566 156.892 30.0778 157.036 29.9727C157.168 29.8788 157.276 29.7585 157.35 29.6207C157.426 29.4758 157.463 29.3168 157.461 29.1561C157.467 29.0355 157.444 28.9151 157.392 28.8041C157.339 28.6908 157.258 28.5903 157.156 28.5102C156.91 28.3311 156.621 28.2109 156.313 28.1599L155.742 28.0561C155.542 28.0318 155.352 27.9649 155.186 27.8607C155.123 27.8189 155.073 27.7632 155.039 27.6988C155.005 27.635 154.988 27.5642 154.991 27.4929C154.988 27.4039 155.009 27.3155 155.052 27.2359C155.096 27.1587 155.161 27.0928 155.239 27.0441Z" fill="#3D3F43"/>
<path d="M157.729 26.9931H159.19V30.2068H159.757V26.9931H161.225V26.5161H157.729V26.9931Z" fill="#3D3F43"/>
<path d="M162.316 26.5161H161.748V30.2068H162.316V26.5161Z" fill="#3D3F43"/>
<path d="M163.803 26.5161H163.235V30.2068H166.009V29.7387H163.803V26.5161Z" fill="#3D3F43"/>
<path d="M167.156 26.5161H166.588V30.2068H169.362V29.7387H167.156V26.5161Z" fill="#3D3F43"/>
<path d="M171.39 26.4932L169.583 30.2068H170.192L170.646 29.2564H172.671L173.126 30.2068H173.734L171.925 26.4932H171.39ZM170.872 28.7812L171.662 27.1215L172.452 28.7812H170.872Z" fill="#3D3F43"/>
<path d="M174.914 27.0441C175.111 26.9259 175.343 26.868 175.577 26.8786C175.83 26.8629 176.082 26.9289 176.289 27.0652C176.452 27.191 176.56 27.3674 176.593 27.5615H177.165C177.146 27.3776 177.081 27.2003 176.974 27.0441C176.875 26.9033 176.746 26.7834 176.593 26.6921C176.441 26.5998 176.272 26.533 176.095 26.4949C175.913 26.4527 175.726 26.4314 175.539 26.4316C175.333 26.429 175.128 26.4551 174.931 26.509C174.761 26.5564 174.602 26.6335 174.463 26.7361C174.334 26.831 174.23 26.9512 174.158 27.0881C174.088 27.226 174.052 27.3772 174.055 27.5298C174.05 27.65 174.072 27.7699 174.12 27.8818C174.168 27.9945 174.241 28.0969 174.333 28.1828C174.574 28.3771 174.873 28.4997 175.19 28.5348L175.878 28.6545C176.073 28.6707 176.259 28.744 176.407 28.8639C176.455 28.9081 176.493 28.9607 176.519 29.0188C176.545 29.0768 176.558 29.1391 176.557 29.2018C176.561 29.2886 176.54 29.3748 176.496 29.4517C176.451 29.53 176.386 29.5966 176.306 29.6453C176.104 29.7651 175.866 29.823 175.626 29.8108C175.336 29.825 175.05 29.7495 174.811 29.5961C174.711 29.5242 174.626 29.4347 174.563 29.3326C174.5 29.2305 174.46 29.1178 174.444 29.0012H173.873C173.885 29.1818 173.938 29.3582 174.027 29.5193C174.117 29.6804 174.241 29.8227 174.392 29.9375C174.74 30.1735 175.165 30.2916 175.596 30.2719C175.809 30.274 176.021 30.2467 176.226 30.1909C176.403 30.1425 176.568 30.0637 176.713 29.9586C176.845 29.8647 176.952 29.7443 177.026 29.6066C177.101 29.4618 177.14 29.3028 177.138 29.142C177.143 29.0214 177.12 28.9012 177.069 28.79C177.015 28.677 176.935 28.5767 176.833 28.4961C176.583 28.3212 176.29 28.2058 175.98 28.1599L175.409 28.0561C175.21 28.0317 175.02 27.9648 174.853 27.8607C174.792 27.8182 174.742 27.7626 174.709 27.6985C174.676 27.6344 174.66 27.5638 174.663 27.4929C174.659 27.4036 174.68 27.3148 174.726 27.2359C174.77 27.1585 174.835 27.0925 174.914 27.0441Z" fill="#3D3F43"/>
</g>
<defs>
<clipPath id="clip0_34_331">
<rect width="192" height="44" fill="white"/>
</clipPath>
</defs>
</svg>
