<svg width="1292" height="1350" viewBox="0 0 1292 1350" fill="none" xmlns="http://www.w3.org/2000/svg">
<path d="M892.924 85.6177C885.43 79.2226 885.265 76.6089 893.484 71.1121C898.134 68.0014 903.737 66.3247 908.843 63.8637C909.92 63.3458 911.285 62.3578 911.527 61.3488C912.892 55.6753 916.738 54.6454 921.167 56.7831C927.859 60.0135 926.093 55.5705 925.623 52.3341C924.707 46.0049 929.274 40.9781 934.224 43.5858C940.494 46.8881 947.985 49.2683 950.406 57.1813C951.547 60.9117 952.816 60.9656 954.722 57.8729C960.681 48.2174 962.171 47.912 971.915 54.4987C972.897 55.1633 973.897 55.819 974.95 56.3519C975.303 56.5316 975.857 56.316 976.318 56.2741C974.971 50.9149 970.626 46.6186 965.134 46.0019C958.711 45.2804 954.497 43.3732 953.6 35.7267C953.1 31.4693 954.219 30.8735 957.215 31.4633C960.223 32.0561 963.087 33.4782 965.945 34.6968C967.606 35.4033 969.135 36.4183 970.721 37.2955C971.269 35.2986 972.209 33.3136 972.278 31.2987C972.4 27.697 972.598 23.9096 971.646 20.5145C970.727 17.2481 969.913 15.314 974.48 16.1314C974.549 15.4637 974.807 14.7482 974.654 14.1344C973.663 10.1674 977.901 6.02383 981.986 7.11662C987.825 8.67945 985.781 12.862 983.722 15.3529C979.766 20.1343 982.444 22.6731 986.041 25.0713C986.736 25.5353 989.414 24.6731 989.504 24.1402C990.438 18.6044 993.305 20.7301 995.412 22.7989C999.506 26.8227 1003.23 31.2268 1008.12 36.583C1008.44 33.4812 1008.71 30.9663 1008.95 28.4514C1009.19 25.9096 1009.47 23.3707 1009.58 20.8229C1009.61 20.1193 1009.23 19.287 1008.79 18.6942C1007.7 17.2301 1005.21 15.2511 1005.54 14.5835C1006.56 12.4997 1008.54 10.8231 1010.34 9.21237C1010.94 8.66748 1012.34 9.05369 1013.04 8.54772C1015.16 6.99386 1020.59 8.84412 1018.88 3.02989C1018.79 2.72451 1021.15 1.69459 1022.37 1C1025.24 1 1028.12 1 1030.99 1C1033.44 2.64966 1035.78 4.47896 1038.36 5.87413C1039.79 6.64357 1041.61 6.68549 1043.26 7.05374C1042.82 8.72137 1042.42 10.401 1041.94 12.0566C1041.53 13.4847 1040.99 14.8799 1040.67 16.323C1040.64 16.4338 1042.08 17.2212 1042.43 17.0116C1043.84 16.1733 1044.94 14.6733 1046.42 14.1614C1047.98 13.6195 1049.84 13.9218 1051.57 13.856C1051.03 15.6793 1051.04 18.4008 1049.84 19.1373C1047.11 20.8109 1043.84 21.766 1040.67 22.5474C1033.98 24.203 1027.22 25.5593 1020.48 27.0383C1020.57 27.7598 1020.66 28.4814 1020.74 29.2029C1024.61 29.2029 1028.49 29.0322 1032.34 29.2837C1034 29.3915 1036.43 29.9544 1037 31.0741C1037.58 32.2238 1036.84 34.8644 1035.77 35.8944C1027.21 44.1007 1018.44 52.0826 1009.72 60.1303C1008.15 61.5823 1006.5 62.9506 1005.01 64.4865C1004.48 65.0344 1003.86 66.211 1004.1 66.681C1007.88 74.0611 1007.33 76.8874 1000.99 82.7944C1000.49 83.2555 1000.23 84.8423 1000.58 85.2015C1005.89 90.6295 1000.41 92.393 997.363 94.9827C995.738 96.3629 993.212 97.4827 992.727 99.1862C992.174 101.123 986.682 106.815 995.49 105.231C996.513 105.045 998.327 107.234 999.201 108.671C1001.03 111.677 1001.4 111.794 1003.42 109C1006.01 105.432 1008.95 102.081 1011.19 98.312C1012.91 95.4049 1018.85 92.5846 1012.42 88.3781C1012.06 88.1446 1012.67 85.6237 1013.43 84.6477C1015.19 82.4112 1017.32 80.4651 1019.31 78.4143C1026.11 71.4204 1034.99 65.4864 1039.2 57.1843C1044.92 45.939 1053.44 37.7865 1061.72 29.0891C1063.94 26.7569 1067.02 25.1551 1069.89 23.5503C1073.64 21.4546 1075.78 23.5863 1076.88 26.9814C1079.5 35.068 1075.67 47.3072 1069.81 51.9598C1077.95 62.3458 1065.43 71.4234 1067.86 81.2166C1076.23 73.5371 1081.27 71.0701 1088.77 70.8725C1087.35 67.8906 1092.47 47.1336 1095.11 45.0109C1097.64 42.972 1099.96 40.6098 1102.69 38.8703C1105.42 37.1249 1108.53 35.9722 1113.07 33.8016C1107.85 32.9154 1103.72 32.9214 1100.27 31.3855C1097.79 30.2867 1096.24 27.1221 1094.27 24.8797C1096.57 23.5953 1098.87 22.3138 1100.88 21.1941C1100.74 20.8259 1100.04 18.8648 1099.33 16.9038C1101.68 16.6254 1104.04 16.0266 1106.37 16.1433C1109.96 16.323 1114.43 19.3049 1114.03 11.6914C1113.94 9.96984 1118.08 7.41302 1120.71 6.44897C1121.88 6.02083 1124.03 8.83813 1125.95 9.73931C1128.84 11.0986 1131.91 12.9668 1134.9 12.9698C1138.46 12.9728 1141.98 10.7932 1145.6 10.4309C1147.39 10.2513 1151.06 12.1674 1151 12.9039C1150.53 18.796 1154.55 17.6134 1157.89 17.9846C1165.45 18.8169 1166.92 21.8139 1163.31 28.5502C1157.78 38.8554 1150.49 42.7235 1139.16 41.49C1137.17 41.2715 1135.13 41.4601 1133.48 41.4601C1137.19 43.0888 1140.96 44.7414 1144.72 46.3911C1143.17 48.3581 1141.62 50.3221 1138.97 53.6933C1142.31 51.9419 1144.08 50.7922 1146.01 50.0587C1148.19 49.2353 1150.51 48.7892 1152.76 48.1785C1152.44 50.888 1152.93 54.1304 1151.6 56.1873C1149.59 59.298 1146.37 61.6692 1143.52 64.1931C1141.71 65.7978 1139.64 67.1062 1137.22 68.8906C1144.86 68.5253 1151.44 68.2139 1157.84 67.9085C1157.65 67.0343 1156.19 64.4715 1156.91 62.8907C1161.43 52.882 1163.28 41.3164 1172.36 33.8585C1174.95 31.7298 1178.48 29.6969 1181.67 29.5562C1192.86 29.0562 1202.91 33.5112 1207.54 45.6546C1207.92 46.6336 1209.55 48.0168 1210.23 47.8372C1212.7 47.1845 1215.06 46.0348 1217.37 44.9031C1222.58 42.3553 1225.71 44.2834 1225.54 50.0587C1225.51 51.4898 1225.35 52.9179 1225.2 55.0436C1236.49 43.8493 1236.49 43.8522 1246.84 54.5646C1247.16 54.8939 1247.62 55.1154 1248.05 55.3011C1254.17 57.9417 1254.48 60.9955 1247.57 64.5853C1256.53 61.7051 1261.94 62.5045 1265.31 65.9086C1269.31 69.9444 1271.63 77.5849 1280 73.8665C1280.57 73.615 1281.76 74.3725 1282.47 74.9054C1285.36 77.049 1288.17 79.2885 1291 81.492C1291 82.4501 1291 83.4082 1291 84.3662C1289.7 85.5398 1287.08 87.3991 1287.28 87.7793C1289.75 92.4798 1286.52 93.1594 1283.3 93.857C1281.23 94.3061 1279.12 94.7522 1277.01 94.8869C1267.28 95.5127 1258.94 97.1982 1253.26 107.285C1250.89 111.5 1242.75 114.404 1237.2 114.473C1226.35 114.608 1215.41 112.659 1204.62 110.94C1195.93 109.56 1187.43 107.093 1178.77 105.488C1176.89 105.138 1174.7 106.411 1172.66 106.935C1172.67 107.527 1172.69 108.12 1172.7 108.71C1188.52 113.473 1204.34 118.237 1220.87 123.213C1219.52 125.027 1218.4 126.542 1217.69 127.506C1220.06 128.889 1222.41 130.26 1224.84 131.676C1227.33 127.623 1232.07 127.572 1236.51 132.874C1238.43 135.176 1239.84 139.874 1243.06 133.422C1243.62 132.323 1250.15 132.476 1252.01 134.161C1255.27 137.131 1258.16 138.263 1262.57 138.497C1278.67 139.353 1281.99 144.263 1282.5 160.251C1282.72 167.155 1278.05 170.774 1270.99 169.155C1263.64 167.463 1256.55 164.625 1249.42 162.307C1246.97 166.996 1244.67 174.316 1240.03 179.561C1233.25 187.223 1222.71 188.693 1213.18 190.822C1208.01 191.977 1205.09 192.774 1205.04 199.007C1204.97 206.555 1202.33 213.758 1196.06 218.528C1193.57 220.426 1188.69 222.435 1186.87 221.282C1183.15 218.932 1178.9 214.755 1178.29 210.803C1177.35 204.66 1178.65 197.971 1185.26 193.965C1188.27 192.136 1190.67 189.274 1193.29 186.819C1202.42 178.256 1201.79 176.496 1197.87 164.957C1194.46 154.933 1188 150.691 1178.68 148.374C1173.37 147.053 1168.1 145.236 1163.12 142.949C1160.31 141.652 1158.1 138.994 1155.68 136.877C1154.64 135.973 1153.93 134.248 1152.8 133.973C1144.4 131.922 1140.61 124.85 1136.67 118.515C1132.59 111.955 1126.69 113.291 1121.95 114.898C1117.13 116.536 1112.89 120.554 1109.03 124.207C1103.98 128.994 1098.41 130.326 1091.69 129.623C1084.52 128.874 1077.27 128.712 1070.05 128.712C1068.5 128.712 1066.52 130.153 1065.48 131.503C1061.76 136.293 1059.27 142.523 1054.65 145.99C1047.82 151.116 1040.59 154.379 1041.22 165.197C1041.56 171.026 1038.42 177.148 1036.41 182.987C1035.19 186.498 1031.97 189.612 1031.67 193.079C1030.98 201.031 1030.39 209.318 1031.94 217.037C1033.11 222.896 1029.57 225.761 1028.01 229.979C1025.95 235.584 1022.65 235.644 1017.34 234.656C1010.61 233.401 1000.38 242.329 1001.58 249.135C1003.58 260.422 992.5 261.071 988.696 267.413C988.633 267.517 985.652 266.206 984.348 265.164C981.052 262.53 978.326 258.895 974.675 257.051C965.239 252.281 955.267 248.575 945.812 243.829C939.686 240.755 935.897 240.183 933.587 248.201C932.848 250.757 928.592 252.712 925.56 254.09C921.942 255.733 917.731 256.066 914.098 257.688C908.87 260.021 903.967 263.805 899.248 256.865C898.658 255.997 896.641 256.072 895.273 255.769C889.755 254.542 884.257 252.494 878.702 252.314C869.939 252.036 866.695 248.042 862.362 240.183C854.203 225.381 842.032 212.836 832.051 198.98C827.253 192.322 809.788 190.498 803.673 199.585C802.551 201.256 803.272 205.079 804.445 207.181C806.483 210.833 808.348 214.606 804.439 217.222C802.497 218.525 798.355 217.734 795.76 216.614C790.445 214.315 785.669 210.98 781.156 218.013C780.33 219.3 777.217 219.444 775.134 219.531C770.151 219.737 765.153 219.596 758.982 219.596C760.293 221.803 760.784 223.051 761.628 223.983C769.463 232.638 770.839 240.054 765.581 250.578C763.043 255.658 759.838 260.563 756.124 264.844C753.454 267.922 752.365 269.071 756.851 271.251C763.893 274.673 763.322 274.912 758.06 281.098C751.772 288.49 745.395 290.439 736.321 286.005C728.635 282.251 720.118 280.245 712.106 277.11C705.345 274.466 698.776 272.721 691.261 273.921C687.763 274.481 682.873 273.086 680.224 270.751C675.038 266.173 669.642 266.661 665.131 269.67C662.528 271.41 661.103 276.362 660.915 279.957C660.606 285.858 661.25 291.927 662.36 297.762C664.775 310.454 654.354 317.498 649.856 327.118C649.635 327.594 646.031 327.001 644.347 326.19C637.682 322.986 631.232 319.328 624.516 316.25C622.969 315.54 620.21 315.78 618.812 316.747C613.162 320.654 608.128 325.51 602.292 329.07C596.366 332.684 593.125 337.45 591.081 343.98C588.612 351.875 585.643 359.785 581.564 366.934C579.661 370.269 574.929 372.65 570.978 374.015C563.778 376.503 561.97 380.281 566.127 386.67C568.605 390.481 570.524 394.814 573.591 398.056C579.84 404.661 578.14 412.164 577.009 419.666C576.79 421.121 575.623 422.894 574.369 423.657C561.74 431.343 555.209 444.028 547.368 455.737C542.625 462.821 536.705 469.108 531.836 476.117C530.345 478.264 529.756 481.734 530.154 484.386C533.129 504.158 533.629 498.844 518.605 508.883C510.803 514.095 502.201 515.431 493.4 515.574C487.106 515.676 486.088 518.469 487.052 523.574C487.273 524.748 487.638 525.903 487.776 527.086C488.976 537.559 491.382 547.451 487.62 558.606C484.164 568.857 485.84 580.773 484.676 591.899C484.26 595.878 482.284 599.734 480.755 603.536C480.064 605.258 477.9 606.665 477.798 608.302C476.879 622.697 466.554 632.29 459.979 643.76C455.46 651.646 450.549 659.316 445.59 666.936C443.073 670.804 443.615 673.534 447.598 675.723C451.342 677.777 454.861 680.504 458.848 681.786C463.852 683.396 465.644 686.196 465.507 691.235C465.411 694.788 465.938 698.417 466.638 701.92C468.688 712.153 464.549 720.752 459.315 728.847C458.237 730.515 454.544 731.587 452.336 731.225C445.279 730.072 438.356 728.096 431.371 726.476C414.408 722.542 401.811 727.629 392.1 742.284C385.516 752.221 378.86 762.11 372.395 772.122C371.614 773.331 371.168 775.454 371.68 776.691C375.161 785.095 370.986 791.627 366.461 797.807C362.965 802.582 362.39 806.774 365.078 812.226C367.915 817.977 370.004 824.192 371.575 830.42C372.213 832.947 370.725 836.06 370.01 838.86C369.283 841.713 367.278 844.65 367.649 847.294C368.903 856.272 370.953 865.036 366.987 873.991C366.14 875.907 367.287 879.311 368.52 881.448C380.048 901.439 377.402 922.253 372.728 943.324C371.542 948.662 370.914 954.21 370.824 959.674C370.776 962.5 371.671 966.132 373.533 968.045C378.124 972.764 381.386 978.629 389.14 980.581C393.342 981.641 395.832 988.763 399.51 992.763C408.075 1002.07 405.66 1011.57 400.222 1021.02C393.809 1032.17 393.096 1032.86 380.802 1036.53C375.78 1038.03 374.377 1039.67 376.367 1044.98C381.61 1058.98 386.791 1073.06 390.696 1087.47C392.112 1092.69 389.939 1098.93 389.221 1104.68C388.718 1108.72 386.871 1112.87 387.425 1116.71C389.194 1129.01 379.401 1147.93 367.957 1152.18C365.662 1153.03 362.771 1152.16 360.17 1152.33C356.103 1152.58 353.948 1153.88 355.773 1158.74C359.55 1168.77 358.09 1172.22 349.135 1179.26C347.672 1180.41 346.681 1183.26 346.867 1185.18C347.25 1189.19 348.001 1193.35 349.599 1197.01C355.357 1210.22 351.314 1223.22 349.372 1236.28C348.812 1240.04 347.819 1243.75 347.382 1247.52C346.723 1253.21 342.907 1255.24 338.023 1255.46C336.673 1255.52 334.534 1253.53 333.941 1252.02C331.906 1246.84 331.397 1240.74 328.321 1236.39C326.381 1233.65 320.914 1233.38 317.005 1232.08C315.58 1231.6 314.096 1231.28 312.618 1231.01C311.579 1230.82 310.499 1230.84 309.439 1230.77C310.035 1231.99 310.394 1233.42 311.28 1234.37C312.54 1235.72 315.311 1236.63 315.395 1237.87C315.521 1239.69 313.842 1241.63 312.929 1243.52C311.127 1242.61 308.838 1242.1 307.626 1240.68C305.462 1238.15 299.177 1236.3 305.067 1231.37C305.309 1231.16 304.929 1229.51 304.45 1229.25C295.717 1224.55 298.034 1214.45 293.781 1207.55C290.229 1201.78 291.333 1195.43 293.987 1189.23C288.792 1190.49 284.65 1191.48 279.703 1192.67C282.067 1195.09 285.368 1197.24 286.787 1200.27C288.178 1203.25 287.317 1207.19 288.059 1210.58C289.19 1215.73 288.077 1217.97 282.555 1220.14C279.963 1221.16 279.407 1228.61 278.853 1233.26C278.042 1240.04 275.764 1244.65 268.007 1244.39C267.271 1244.36 266.367 1244.91 265.783 1245.45C258.307 1252.37 255.372 1251.79 252.834 1243C250.134 1245.91 247.357 1248.88 244.618 1251.89C243.041 1253.62 237.732 1254.6 243.287 1258.01C243.371 1258.06 242.521 1260.68 241.632 1261.1C233.979 1264.71 229.334 1271.06 224.92 1277.95C222.448 1281.8 218.71 1284.84 215.535 1288.24C215.373 1288.41 215.032 1288.48 214.972 1288.66C210.716 1301.44 197.907 1307.62 191.628 1318.95C189.794 1322.26 185.592 1324.2 182.698 1326.99C180.758 1328.86 179.508 1331.54 177.401 1333.12C175.291 1334.71 172.573 1335.7 169.97 1336.34C168.377 1336.73 164.352 1331.65 166.091 1338.4C164.66 1338.75 163.23 1339.4 161.799 1339.4C153.898 1339.37 147.673 1342.44 143.214 1349C142.256 1349 141.299 1349 140.341 1349C136.806 1343.84 126.278 1341.44 122.082 1345.35C118.215 1348.96 116.001 1347.99 113.816 1343.93C111.966 1340.51 109.913 1339.16 105.394 1340.61C100.073 1342.31 92.1781 1336.65 94.1773 1334.08C99.5314 1327.19 92.7258 1324.75 90.2119 1321.12C88.8352 1319.14 85.0254 1319.05 82.8706 1317.38C74.6314 1311 66.949 1303.86 58.4285 1297.91C50.3091 1292.23 46.4454 1284.29 43.6382 1275.43C42.9498 1273.26 41.4564 1270.27 42.3094 1268.86C46.7297 1261.53 46.9662 1253.79 46.4125 1245.65C46.2569 1243.37 47.2983 1240.03 48.9773 1238.81C52.1766 1236.49 56.0971 1234.53 59.9608 1233.89C68.2957 1232.52 62.1396 1225.6 64.9797 1222.3C63.0105 1221.36 61.0472 1220.4 59.072 1219.46C58.1562 1219.03 57.2224 1218.64 56.2947 1218.23C56.2797 1217.71 66.9011 1213.92 72.0636 1212.58C66.7724 1206.11 60.6372 1208.87 56.0762 1212.68C51.3655 1216.62 46.9721 1217.69 41.1661 1215.53C44.4612 1222.99 42.456 1226.13 35.426 1225.77C35.01 1225.75 34.6299 1226.81 34.0882 1227.13C32.3973 1228.1 30.6226 1229.64 28.9107 1229.6C27.9171 1229.58 26.1035 1226.92 26.1603 1225.51C26.4446 1218.54 27.0701 1211.58 27.8812 1204.65C29.0334 1194.83 29.9851 1184.97 37.3354 1177.14C43.1653 1170.93 53.0624 1170.94 50.9076 1172.06C50.5635 1170.17 50.5994 1168.09 49.7704 1166.45C48.9204 1164.77 47.2205 1163.52 45.8917 1162.08C43.1025 1164.78 40.2294 1167.41 37.5598 1170.22C36.234 1171.62 35.2823 1173.38 34.163 1174.98C33.355 1173.44 31.2241 1174.82 30.7153 1176.85C30.045 1179.53 28.6503 1182.02 27.5669 1184.6C26.4177 1181.91 24.8555 1179.32 24.23 1176.53C23.5446 1173.45 24.0803 1170.1 23.4429 1167C22.4373 1162.1 20.896 1157.3 19.1213 1150.76C33.2323 1158.52 28.2702 1141.97 35.4409 1141.54C32.6098 1142.21 30.3861 1144.38 27.8961 1144.75C25.4989 1145.11 22.8234 1143.61 20.2705 1142.92C21.5514 1141.56 23.395 1140.4 23.9786 1138.79C24.7777 1136.58 25.2745 1133.83 24.637 1131.68C24.215 1130.27 29.0813 1128.3 32.2476 1132.14C33.2562 1133.36 33.5226 1137.87 36.1532 1133.09C36.3448 1132.74 38.1853 1133.24 39.2478 1133.43C41.2948 1133.8 43.3209 1134.41 45.38 1134.56C47.7892 1134.74 50.2283 1134.55 52.6524 1134.52C52.5297 1137.56 52.4489 1140.59 52.2664 1143.62C52.1826 1145 54.1668 1149.88 51.9821 1151.57C50.776 1152.5 51.9162 1157.54 52.4549 1156.68C55.1903 1152.28 58.0215 1147.94 60.9005 1143.45C53.1253 1143.78 53.7717 1138.79 53.8406 1133.54C53.8615 1131.97 57.9048 1128.32 52.0688 1127.8C49.8213 1127.6 47.7622 1125.3 45.2004 1123.7C44.8772 1124.1 43.9524 1125.16 43.1414 1126.28C41.4923 1128.58 35.7283 1128.85 34.588 1126.5C31.8765 1120.9 26.6122 1115.25 26.2172 1118.1C25.9419 1120.08 24.7178 1121.92 23.9157 1123.82C22.2547 1122.8 19.5912 1122.12 19.1153 1120.69C17.3675 1115.49 15.919 1110.09 15.1858 1104.66C14.5932 1100.26 13.5487 1094.64 15.6197 1091.46C19.2829 1085.82 16.0208 1081.52 15.1499 1076.83C13.9169 1070.19 11.8937 1063.69 9.98134 1056.25C17.9002 1058.92 19.1422 1056.73 13.5966 1053.97C12.1182 1053.23 10.8343 1049.06 11.5855 1047.47C13.6086 1043.18 17.0832 1039.63 20.0969 1036C24.7477 1030.4 32.2117 1032.01 30.3053 1029.38C24.9333 1021.98 22.967 1028.65 19.648 1030.84C15.6676 1033.46 10.0502 1034.9 7.80559 1038.51C5.24676 1042.62 3.47802 1040.68 1 1040.02C1 1037.15 1 1034.27 1 1031.4C2.37069 1031.05 4.28608 1031.14 5.01033 1030.26C7.07236 1027.75 8.65255 1024.84 10.4213 1022.08C8.60466 1021.05 6.78505 1020.03 4.96843 1019C5.03427 1018.51 5.10011 1018.01 5.16595 1017.52C10.9301 1018.3 16.6912 1019.07 22.9371 1019.91C18.5766 1016.3 15.8981 1012.82 21.327 1008.8C16.7779 1007.81 12.8335 1006.96 8.88897 1006.11C8.90095 1005.54 8.91292 1004.97 8.92788 1004.4C10.0681 1003.74 11.1485 1002.67 12.3606 1002.49C17.99 1001.66 18.427 996.131 20.495 992.682C22.6947 989.018 24.5502 984.542 18.1636 980.353C13.5128 977.305 16.335 965.491 21.4497 960.731C20.501 960.731 19.8246 960.914 19.3128 960.701C15.9759 959.318 11.2383 966.68 9.91849 960.68C9.05059 956.725 9.44563 950.348 14.7818 946.83C16.5984 945.633 17.7267 942.827 18.3372 940.534C18.8609 938.555 18.1995 936.261 18.0619 934.109C20.908 934.911 24.9123 934.803 26.3848 936.684C31.1194 942.725 32.0741 931.055 31.0116 930.085C28.8718 928.136 25.3792 927.307 23.9247 925.055C21.9644 922.019 21.4617 917.52 26.0077 916.157C27.9829 915.564 31.0266 917.906 33.343 919.313C34.9142 920.268 35.818 919.882 35.1836 918.133C34.8424 917.196 34.3396 915.675 34.7676 915.208C36.671 913.139 38.6941 911.044 41.0584 909.574C42.7583 908.517 45.0597 908.433 47.0918 907.912C46.9213 907.361 46.7507 906.813 46.5801 906.262C44.8054 905.9 43.0336 905.541 41.2589 905.178C42.3243 903.529 43.306 901.819 44.4821 900.253C45.2992 899.164 46.2269 897.948 47.3941 897.388C48.5164 896.849 50.5395 896.481 51.2398 897.095C53.3647 898.954 55.0437 901.328 56.4892 903.023C59.5837 897.709 62.5436 892.661 65.4645 887.589C66.3055 886.128 66.925 884.532 67.8468 883.128C69.0409 881.314 70.4415 879.631 71.7494 877.895C72.716 879.269 73.6259 880.685 74.6644 882.002C75.5562 883.134 76.5977 884.149 77.5703 885.218C78.3844 883.999 79.2343 882.802 80.0095 881.562C81.4699 879.224 83.1998 874.697 84.2682 874.853C91.6604 875.934 95.6048 870.233 98.5827 866.203C102.36 861.093 106.95 861.736 111.535 860.677C112.43 860.47 112.658 858.718 112.23 858.527C109.806 857.428 107.528 856 105.2 854.683C106.624 853.078 107.809 851.111 109.542 849.97C111.356 848.776 116.129 849.704 111.745 845.431C111.335 845.03 112.152 842.315 113.053 841.788C119.335 838.117 124.47 831.117 133.323 834.312C133.769 834.474 134.816 833.959 135.086 833.48C139.557 825.48 146.904 822.186 155.466 820.758C156.622 820.567 158.094 820.24 158.75 819.432C164.642 812.142 172.471 808.633 181.429 806.708C182.901 806.39 183.53 802.956 184.904 801.244C192.344 791.963 203.944 791.1 214.08 787.484C215.906 786.834 218.812 782.669 212.066 785.693C205.018 788.852 197.336 790.9 189.722 792.349C186.439 792.975 182.635 790.876 179.071 790.014C180.328 786.705 180.696 782.439 183.021 780.289C187.86 775.813 193.535 772.107 199.278 768.805C201.678 767.424 205.129 767.766 208.116 767.556C210.213 767.409 212.506 768.209 214.418 767.622C220.802 765.667 220.757 765.502 220.38 772.709C220.215 775.903 228.212 778.092 221.888 782.75C228.963 778.906 236.098 775.167 243.086 771.173C247.291 768.769 252.753 770.846 252.594 769.361C252.175 765.499 250.541 763.389 246.654 766.155C240.626 770.439 240.135 767.879 240.252 761.948C240.387 755.107 242.556 749.305 248.629 746.943C255.746 744.176 258.269 738.668 260.555 733.353C258.155 732.407 255.988 731.554 253.818 730.701C255.027 728.943 255.835 726.449 257.505 725.545C270.018 718.77 276.534 706.366 285.503 696.282C285.817 695.929 286.583 695.552 286.526 695.348C283.231 682.885 296.738 688.298 299.952 682.657C298.638 681.914 297.321 681.169 296.005 680.423C296.238 679.672 296.474 678.921 296.711 678.169C300.006 679.016 304.31 681.519 306.333 680.283C308.739 678.813 308.332 673.229 310.657 671.029C315.544 666.409 320.596 661.565 328.782 662.846C330.778 663.16 333.366 658.69 335.922 656.729C338.278 654.918 340.953 653.526 343.362 650.337C340.627 651.2 337.682 651.685 335.219 653.041C333.01 654.256 331.589 657.098 329.338 657.978C327.552 658.676 321.165 663.906 324.014 654.867C324.274 654.044 321.748 652.227 320.378 651.029C317.726 648.712 315.23 645.197 312.202 644.613C308.996 643.996 305.297 646.499 301.724 647.125C296.597 648.023 296.867 644.876 298.123 641.505C299.078 638.942 299.988 636.281 301.466 634.023C302.221 632.874 304.36 631.709 305.578 631.964C308.757 632.634 312.962 637.077 312.408 629.095C314.258 629.727 317.247 629.862 317.774 631.071C321.557 639.76 321.512 639.152 330.245 636.966C340.6 634.377 346.466 627.344 352.167 619.395C353.705 617.248 356.552 616.042 358.796 614.404C359.712 616.006 360.628 617.611 361.699 619.488C361.882 616.189 369.394 611.602 359.323 610.371C358.599 610.282 357.982 609.302 357.315 608.737C358.027 607.928 358.796 606.38 359.44 606.431C363.86 606.788 363.968 604.348 363.582 601.021C363.402 599.479 363.698 597.605 364.458 596.276C367.861 590.336 370.187 584.195 370.256 577.195C370.273 575.357 371.908 573.534 372.799 571.708C374.392 572.866 375.984 574.028 378.168 575.618C377.462 572.609 377.621 569.202 376.02 567.232C371.046 561.124 375.768 559.543 379.877 557.358C382.11 556.169 384.277 554.858 386.473 553.603C386.153 553.082 385.836 552.561 385.516 552.04C384.552 552.498 383.627 553.106 382.616 553.373C381.398 553.693 380.102 553.723 378.839 553.876C379.267 552.6 379.566 551.262 380.156 550.067C380.685 549.002 384.905 547.484 379.617 547.567C378.854 547.579 377.588 546.289 377.378 545.403C376.145 540.25 376.226 540.229 370.567 544.526C372.743 539.945 371.079 534.304 378.74 535.499C380.15 535.717 382.436 530.316 384.316 527.511C381.847 527.966 379.09 527.894 376.989 529.032C375.005 530.107 373.706 532.451 372.108 534.235C371.384 533.703 370.657 533.17 369.932 532.64C374.182 526.092 378.435 519.544 382.23 513.694C382.164 513.727 380.934 514.733 379.572 514.966C377.965 515.242 376.244 514.844 374.574 514.739C375.75 513.865 376.968 513.035 378.1 512.104C385.121 506.317 391.091 503.7 392.471 516.523C392.549 517.236 394.799 518.475 395.015 518.29C397.217 516.374 399.51 514.428 401.195 512.074C404.475 507.491 407.381 502.637 410.661 497.56C410.443 497.2 409.234 495.045 407.848 493.015C407.21 492.078 406.351 491 405.364 490.662C403.82 490.129 402.078 490.171 400.423 489.97C400.764 487.692 401.102 485.41 401.443 483.132C403.359 483.446 405.274 483.985 407.192 484C408.782 484.015 410.38 483.41 411.972 483.081C411.307 481.839 410.927 480.273 409.934 479.413C405.253 475.36 409.635 469.977 407.707 465.575C408.674 465.225 410.089 464.291 410.526 464.629C412.19 465.914 413.806 467.441 414.896 469.213C415.5 470.198 415.028 471.848 415.04 473.198C416.153 471.905 417.341 470.662 418.344 469.288C418.733 468.755 419.08 467.701 418.819 467.255C414.211 459.426 419.885 460.276 425.278 460.432C417.778 458.776 419.517 454.186 422.156 450.92C425.059 447.324 429.366 444.887 432.918 441.783C434.11 440.741 439.015 440.396 433.762 437.319C431.47 435.974 431.524 432.858 435.8 432.058C442.762 430.756 449.633 428.951 456.484 427.139C457.028 426.996 457.417 425.13 457.375 424.085C457.163 418.687 454.966 412.376 464.729 413.388C466.913 413.616 469.314 410.4 471.822 409.209C476.766 406.858 481.853 404.813 487.106 402.547C482.563 403.02 478.017 403.493 471.765 404.146C473.707 401.775 474.707 400.736 475.5 399.559C479.905 393.023 484.783 386.736 488.497 379.826C493.214 371.051 506.292 365.85 513.861 369.605C514.55 366.425 514.367 362.362 516.261 359.907C518.162 357.446 517.408 350.45 524.315 353.399C525.018 353.701 527.32 350.258 529.118 348.291C523.223 346.019 520.658 351.198 516.803 353.342C511.057 356.536 505.212 359.608 499.179 362.204C497.563 362.898 495.123 361.68 493.061 361.338C493.711 359.865 494.627 358.449 494.944 356.907C495.444 354.473 496.716 350.979 495.605 349.647C490.763 343.842 496.656 342.099 498.888 338.848C500.241 336.878 500.899 334.423 502.279 332.477C503.527 330.719 505.314 328.07 506.903 328.04C514.14 327.911 516.983 322.51 520.99 318.055C523.938 314.78 525.775 308.283 532.596 311.825C536.502 304.804 541.766 309.84 546.527 310.163C546.916 310.19 547.488 309.097 547.799 308.439C549.119 305.654 549.843 302.385 551.774 300.148C554.455 297.041 557.427 298.687 558.118 302.029C559.247 307.478 559.36 313.127 560.142 318.66C560.366 320.259 561.285 321.821 562.18 323.211C562.377 323.519 564.511 323.187 564.589 322.866C565.334 319.759 565.606 316.525 566.513 313.474C566.863 312.298 568.557 311.561 569.518 310.513C570.838 309.076 572.044 307.534 573.298 306.037C571.649 305.972 569.979 306.049 568.354 305.81C566.187 305.49 564.047 301.57 564.526 300.921C562.078 298.424 559.139 295.66 556.601 292.568C556.26 292.155 556.595 280.191 555.877 281.631C553.74 285.918 552.486 291.526 545.695 286.511C545.238 286.173 542.188 288.655 540.91 290.271C538.366 293.493 536.597 297.49 531.566 293.062C530.292 291.942 527.442 292.34 525.348 292.478C520.469 292.798 506.912 299.175 498.951 304.648C497.057 305.951 494.549 306.352 492.322 307.169C493.352 305.172 494.381 303.175 495.689 300.642C494.552 300.579 492.966 300.035 491.789 300.508C486.088 302.798 480.489 305.346 474.865 307.828C466.611 311.468 466.617 311.477 465.89 302.852C461.96 304.798 457.687 306.433 453.982 308.924C451.513 310.582 450.3 314.555 447.757 315.564C442.25 317.756 436.166 318.444 430.503 320.316C428.459 320.992 427.124 324.318 425.161 324.657C417.529 325.971 414.234 331.48 410.502 337.276C408.458 340.45 404.55 342.456 401.354 344.818C400.758 345.258 399.022 345.216 398.744 344.788C398.247 344.025 398.061 342.617 398.439 341.797C402.278 333.456 406.678 325.345 410.006 316.81C411.487 313.007 412.588 313.615 415.56 314.534C417.105 315.013 420.597 313.606 421.118 312.25C423.868 305.076 427.256 308.439 430.3 310.576C432.071 306.346 432.945 298.978 436.094 297.825C442.929 295.325 449.819 291.146 458.142 293.071C462.46 294.071 467.38 292.481 472.028 292.065C473.761 291.912 475.5 291.777 475.832 290.173C477.502 288.295 478.911 286.059 480.896 284.613C485.992 280.897 491.122 278.987 498.032 281.191C501.465 282.287 506.325 279.245 510.425 277.763C512.613 276.969 513.541 273.017 514.648 270.457C515.597 268.263 518.536 266.961 520.514 265.173C522.866 263.044 521.149 260.003 518.665 261.67C513.882 264.877 509.342 268.541 505.146 272.487C499.547 277.757 490.033 276.613 487.046 269.652C486.567 268.532 488.004 265.583 489.269 264.973C490.987 264.149 493.397 264.769 496.27 264.769C495.842 262.634 495.405 260.452 494.968 258.266C492.669 259.329 490.461 260.697 488.054 261.377C484.825 262.287 480.306 264.272 478.391 262.91C475.176 260.625 473.402 256.557 476.427 251.656C481.363 243.674 482.254 245.578 491.763 239.937C498.347 236.03 497.99 242.79 501.702 242.039C500.956 240.279 500.468 238.494 499.517 237.006C496.868 232.863 494.983 229.405 502.486 228.656C503.841 228.521 504.718 225.462 506.203 224.213C507.915 222.77 509.959 221.309 512.057 220.923C512.936 220.761 514.208 223.462 515.513 224.62C516.486 225.486 517.788 225.995 518.97 226.608C519.365 226.812 520.17 226.749 520.239 226.974C521.164 230.042 521.059 234.138 523.055 236.012C526.389 239.144 525.108 241.156 523.42 243.979C522.917 244.82 523.061 246.365 523.483 247.335C523.77 247.997 525.06 248.221 525.901 248.644C526.236 247.623 526.479 246.554 526.925 245.584C528.732 241.659 530.6 237.767 532.446 233.86C532.958 232.857 533.467 231.851 533.979 230.848C537.154 223.914 543.87 226.794 549.074 225.62C549.532 225.515 550.741 228.015 551.34 229.417C552.417 231.931 549.682 236.422 555.147 236.632C553.893 238.548 552.642 240.464 552.025 241.41C553.183 245.491 554.318 249.488 555.296 252.925C555.619 251.62 555.709 248.964 556.885 246.937C559.726 242.045 563.027 237.413 566.325 232.806C566.531 232.518 568.339 233.282 569.35 233.686C578.46 237.309 584.287 243.261 583.177 253.844C582.564 259.685 585.532 258.042 588.732 256.85C594.346 254.76 599.368 251.473 606.275 253.32C611.71 254.772 614.538 248.988 611.731 243.614C611.076 242.359 610.767 240.925 610.289 239.578C609.259 236.671 608.224 233.77 607.191 230.863C611.121 230.545 615.227 229.363 618.944 230.111C625.076 231.348 626.779 220.066 627.871 219.186C633.477 214.668 639.471 207.208 636.048 207.336C633.459 207.432 630.84 208.24 628.305 207.989C621.751 207.336 616.053 211.791 614.209 218.426C613.703 220.249 610.8 221.983 608.676 222.545C607.58 222.836 605.889 220.273 604.267 219.354C602.858 218.555 601.167 218.255 599.601 217.731C596.824 216.803 592.278 216.552 591.617 214.818C589.869 210.228 594.047 209.848 597.477 209.237C599.763 208.83 601.927 207.725 603.98 206.995C601.562 204.528 599.26 202.175 596.956 199.821C599.377 198.771 601.798 197.723 604.285 196.645C603.229 195.968 602.103 195.106 600.858 194.477C596.465 192.256 596.07 190.429 601.292 189.007C600.58 187.055 594.092 188.397 598.207 183.855C599.431 182.508 601.607 181.669 603.477 181.34C607.395 180.648 611.396 180.451 616.062 179.981C614.544 177.639 613.251 176.008 612.393 174.169C611.992 173.313 612.126 171.271 612.536 171.116C615.87 169.834 619.345 168.93 622.733 167.774C623.538 167.499 624.465 166.858 624.816 166.134C625.651 164.415 626.171 162.547 626.821 160.739C628.598 162.203 630.391 163.652 632.148 165.143C632.66 165.577 633.073 166.131 633.537 166.637C635.245 164.954 631.573 160.245 639.274 162.02C651.448 164.828 653.861 173.137 657.943 182.49C658.457 179.666 658.167 176.816 659.433 175.148C663.132 170.274 667.457 171.101 670.824 176.376C672.82 179.508 668.597 175.475 673.64 169.427C668.124 168.58 662.291 168.029 656.665 166.637C654.585 166.122 651.191 162.999 651.49 162.143C652.771 158.457 655.127 155.125 657.26 151.769C657.871 150.808 659.478 150.383 659.87 149.407C660.502 147.835 660.508 146.008 660.777 144.287C662.629 145.437 664.482 146.586 665.535 147.239C667.095 145.125 668.286 141.841 670.438 140.988C673.643 139.715 678.048 138.97 680.96 140.245C683.375 141.302 686.111 142.059 684.997 139.122C683.866 136.134 680.781 133.078 686.356 131.269C686.781 131.132 687.29 129.712 687.054 129.326C684.845 125.742 686.718 124.662 689.942 124.072C690.564 123.958 691.028 122.97 691.564 122.386C690.735 122.063 689.807 121.317 689.095 121.485C681.61 123.275 682.576 116.982 683.63 114.189C685.542 109.126 688.436 102.001 692.494 100.722C699.489 98.5186 707.207 99.1623 710.87 90.9738C711.636 91.3661 713.037 91.7104 713.07 92.1565C713.366 96.1803 714.001 100.312 713.402 104.24C712.663 109.096 705.711 111.348 706.644 111.401C710.529 111.626 714.437 111.381 718.328 111.566C719.253 111.611 720.127 112.662 721.025 113.249C720.22 113.785 729.922 116.315 734.492 119.207C735.504 119.847 736.904 119.853 738.113 120.201C740.208 120.799 742.48 121.138 744.249 122.263C744.689 122.545 743.435 125.395 743.048 127.087C740.894 136.575 739.415 138.958 737.5 145.862C736.599 149.104 741.681 145.529 744.958 141.2C748.483 136.542 751.701 131.584 755.699 127.374C757.785 125.177 763.265 122.536 763.779 123.12C766.617 126.347 769.247 130.296 770.253 134.413C770.953 137.287 768.954 140.832 768.128 144.065C766.976 148.574 764.698 152.888 768.155 157.661C769.02 158.855 767.577 161.921 766.865 164.014C765.794 167.161 764.432 170.208 763.193 173.298C764.001 173.876 764.812 174.454 765.62 175.032C766.392 173.66 767.419 172.37 767.889 170.903C770.001 164.277 778.902 163.655 777.887 163.212C772.683 160.942 769.789 158.056 773.802 152.335C774.239 151.709 774.242 150.239 773.802 149.619C769.675 143.811 773.88 143.155 776.28 142.494C776.28 139.164 775.526 135.601 776.466 132.563C777.723 128.494 784.564 127.29 785.336 130.533C785.947 133.093 785.459 135.913 785.459 139.338C787.596 135.251 789.281 132.03 790.349 129.982C788.581 126.401 786.974 122.829 785.058 119.431C784.382 118.228 783.101 116.907 781.85 116.581C779.459 115.955 776.672 116.542 774.455 115.635C771.68 114.5 767.206 112.369 767.203 110.665C767.203 107.066 768.703 102.393 771.303 100.147C774.389 97.4827 779.225 96.0366 783.409 95.7851C785.594 95.6534 788.165 99.0515 790.248 101.162C791.472 102.405 791.885 104.414 793.007 105.8C797.164 110.934 793.468 116.159 795.084 115.731C797.358 115.129 798.915 110.91 801.482 115.982C803.829 120.617 801.677 122.165 798.11 123.671C797.801 123.802 797.712 124.452 797.433 125.039C799.112 125.335 800.722 125.62 802.332 125.904C801.327 127.32 800.342 128.754 799.304 130.15C798.322 131.473 797.086 132.658 796.398 134.111C796.209 134.512 798.068 136.398 798.158 136.341C801.135 134.377 805.379 132.838 806.564 130.024C808.058 126.479 806.729 121.835 807.292 117.758C807.477 116.419 810.401 114.096 810.991 114.392C816.351 117.072 821.468 120.243 826.67 123.246C827.66 123.817 828.711 124.293 829.734 124.811C831.153 125.527 830.893 128.581 829.426 129.347C833.239 131.296 837.366 133.407 841.691 135.619C843.049 130.62 836.854 123.578 845.671 120.53C840.775 121.608 836.196 117.365 830.806 120.503C828.639 121.764 823.878 120.644 827.188 115.533C827.592 114.91 827.672 113.294 827.334 113.09C822.731 110.327 817.928 107.887 813.388 105.033C811.08 103.584 809.195 101.462 807.118 99.6443C808.566 98.1683 809.847 96.4617 811.496 95.2582C815.234 92.5277 821.51 94.0576 823.423 88.1805C825.592 89.6954 827.765 91.2104 830.372 93.0307C830.255 91.89 829.932 90.8391 830.091 89.8631C830.605 86.6925 831.294 83.5489 831.916 80.3963C833.601 81.022 836.064 81.1687 836.806 82.3723C838.258 84.7345 838.749 87.6835 839.721 90.6385C845.387 82.4591 852.587 92.2133 859.821 91.0188C860.398 90.9229 862.026 93.2642 862.02 94.4648C862.009 96.4827 881.453 98.2162 885.505 97.833C893.957 97.0306 895.507 103.195 895.881 108.237C896.237 113.06 900.31 115.045 901.002 117.455C902.965 124.293 905.82 122.5 910.133 121.165C912.021 120.581 914.412 121.608 916.528 121.898C911.587 118.401 907.436 115.464 903.285 112.53C905.7 110.767 908.112 109.003 910.543 107.231C910.198 107.096 909.606 106.698 908.98 106.644C907.253 106.497 906.242 104.644 907.379 103.647C907.771 103.303 908.235 102.381 908.073 102.156C903.48 95.8899 909.818 95.1594 912.754 92.6025C914.397 91.1714 902.651 95.333 895.621 87.2494C895.037 86.5817 893.983 86.3243 893.145 85.8752L892.924 85.6177Z" stroke="#E8462E" stroke-miterlimit="10"/>
</svg>
