<svg width="1292" height="833" viewBox="0 0 1292 833" fill="none" xmlns="http://www.w3.org/2000/svg">
<path d="M892.924 -431.382C885.43 -437.777 885.265 -440.391 893.484 -445.888C898.134 -448.999 903.737 -450.675 908.843 -453.136C909.92 -453.654 911.285 -454.642 911.527 -455.651C912.892 -461.325 916.738 -462.355 921.167 -460.217C927.859 -456.986 926.093 -461.429 925.623 -464.666C924.707 -470.995 929.274 -476.022 934.224 -473.414C940.494 -470.112 947.985 -467.732 950.406 -459.819C951.547 -456.088 952.816 -456.034 954.722 -459.127C960.681 -468.783 962.171 -469.088 971.915 -462.501C972.897 -461.837 973.897 -461.181 974.95 -460.648C975.303 -460.468 975.857 -460.684 976.318 -460.726C974.971 -466.085 970.626 -470.381 965.134 -470.998C958.711 -471.72 954.497 -473.627 953.6 -481.273C953.1 -485.531 954.219 -486.126 957.215 -485.537C960.223 -484.944 963.087 -483.522 965.945 -482.303C967.606 -481.597 969.135 -480.582 970.721 -479.704C971.269 -481.701 972.209 -483.686 972.278 -485.701C972.4 -489.303 972.598 -493.09 971.646 -496.486C970.727 -499.752 969.913 -501.686 974.48 -500.869C974.549 -501.536 974.807 -502.252 974.654 -502.866C973.663 -506.833 977.901 -510.976 981.986 -509.883C987.825 -508.321 985.781 -504.138 983.722 -501.647C979.766 -496.866 982.444 -494.327 986.041 -491.929C986.736 -491.465 989.414 -492.327 989.504 -492.86C990.438 -498.396 993.305 -496.27 995.412 -494.201C999.506 -490.177 1003.23 -485.773 1008.12 -480.417C1008.44 -483.519 1008.71 -486.034 1008.95 -488.549C1009.19 -491.09 1009.47 -493.629 1009.58 -496.177C1009.61 -496.881 1009.23 -497.713 1008.79 -498.306C1007.7 -499.77 1005.21 -501.749 1005.54 -502.416C1006.56 -504.5 1008.54 -506.177 1010.34 -507.788C1010.94 -508.333 1012.34 -507.946 1013.04 -508.452C1015.16 -510.006 1020.59 -508.156 1018.88 -513.97C1018.79 -514.275 1021.15 -515.305 1022.37 -516C1025.24 -516 1028.12 -516 1030.99 -516C1033.44 -514.35 1035.78 -512.521 1038.36 -511.126C1039.79 -510.356 1041.61 -510.315 1043.26 -509.946C1042.82 -508.279 1042.42 -506.599 1041.94 -504.943C1041.53 -503.515 1040.99 -502.12 1040.67 -500.677C1040.64 -500.566 1042.08 -499.779 1042.43 -499.988C1043.84 -500.827 1044.94 -502.327 1046.42 -502.839C1047.98 -503.381 1049.84 -503.078 1051.57 -503.144C1051.03 -501.321 1051.04 -498.599 1049.84 -497.863C1047.11 -496.189 1043.84 -495.234 1040.67 -494.453C1033.98 -492.797 1027.22 -491.441 1020.48 -489.962C1020.57 -489.24 1020.66 -488.519 1020.74 -487.797C1024.61 -487.797 1028.49 -487.968 1032.34 -487.716C1034 -487.608 1036.43 -487.046 1037 -485.926C1037.58 -484.776 1036.84 -482.136 1035.77 -481.106C1027.21 -472.899 1018.44 -464.917 1009.72 -456.87C1008.15 -455.418 1006.5 -454.049 1005.01 -452.514C1004.48 -451.966 1003.86 -450.789 1004.1 -450.319C1007.88 -442.939 1007.33 -440.113 1000.99 -434.206C1000.49 -433.745 1000.23 -432.158 1000.58 -431.798C1005.89 -426.37 1000.41 -424.607 997.363 -422.017C995.738 -420.637 993.212 -419.517 992.727 -417.814C992.174 -415.877 986.682 -410.185 995.49 -411.769C996.513 -411.955 998.327 -409.766 999.201 -408.329C1001.03 -405.323 1001.4 -405.206 1003.42 -408C1006.01 -411.568 1008.95 -414.919 1011.19 -418.688C1012.91 -421.595 1018.85 -424.415 1012.42 -428.622C1012.06 -428.855 1012.67 -431.376 1013.43 -432.352C1015.19 -434.589 1017.32 -436.535 1019.31 -438.586C1026.11 -445.58 1034.99 -451.514 1039.2 -459.816C1044.92 -471.061 1053.44 -479.213 1061.72 -487.911C1063.94 -490.243 1067.02 -491.845 1069.89 -493.45C1073.64 -495.545 1075.78 -493.414 1076.88 -490.019C1079.5 -481.932 1075.67 -469.693 1069.81 -465.04C1077.95 -454.654 1065.43 -445.577 1067.86 -435.783C1076.23 -443.463 1081.27 -445.93 1088.77 -446.127C1087.35 -449.109 1092.47 -469.866 1095.11 -471.989C1097.64 -474.028 1099.96 -476.39 1102.69 -478.13C1105.42 -479.875 1108.53 -481.028 1113.07 -483.198C1107.85 -484.085 1103.72 -484.079 1100.27 -485.615C1097.79 -486.713 1096.24 -489.878 1094.27 -492.12C1096.57 -493.405 1098.87 -494.686 1100.88 -495.806C1100.74 -496.174 1100.04 -498.135 1099.33 -500.096C1101.68 -500.375 1104.04 -500.973 1106.37 -500.857C1109.96 -500.677 1114.43 -497.695 1114.03 -505.309C1113.94 -507.03 1118.08 -509.587 1120.71 -510.551C1121.88 -510.979 1124.03 -508.162 1125.95 -507.261C1128.84 -505.901 1131.91 -504.033 1134.9 -504.03C1138.46 -504.027 1141.98 -506.207 1145.6 -506.569C1147.39 -506.749 1151.06 -504.833 1151 -504.096C1150.53 -498.204 1154.55 -499.387 1157.89 -499.015C1165.45 -498.183 1166.92 -495.186 1163.31 -488.45C1157.78 -478.145 1150.49 -474.276 1139.16 -475.51C1137.17 -475.729 1135.13 -475.54 1133.48 -475.54C1137.19 -473.911 1140.96 -472.259 1144.72 -470.609C1143.17 -468.642 1141.62 -466.678 1138.97 -463.307C1142.31 -465.058 1144.08 -466.208 1146.01 -466.941C1148.19 -467.765 1150.51 -468.211 1152.76 -468.822C1152.44 -466.112 1152.93 -462.87 1151.6 -460.813C1149.59 -457.702 1146.37 -455.331 1143.52 -452.807C1141.71 -451.202 1139.64 -449.894 1137.22 -448.109C1144.86 -448.475 1151.44 -448.786 1157.84 -449.091C1157.65 -449.966 1156.19 -452.528 1156.91 -454.109C1161.43 -464.118 1163.28 -475.684 1172.36 -483.142C1174.95 -485.27 1178.48 -487.303 1181.67 -487.444C1192.86 -487.944 1202.91 -483.489 1207.54 -471.345C1207.92 -470.366 1209.55 -468.983 1210.23 -469.163C1212.7 -469.816 1215.06 -470.965 1217.37 -472.097C1222.58 -474.645 1225.71 -472.717 1225.54 -466.941C1225.51 -465.51 1225.35 -464.082 1225.2 -461.956C1236.49 -473.151 1236.49 -473.148 1246.84 -462.435C1247.16 -462.106 1247.62 -461.885 1248.05 -461.699C1254.17 -459.058 1254.48 -456.004 1247.57 -452.415C1256.53 -455.295 1261.94 -454.496 1265.31 -451.091C1269.31 -447.056 1271.63 -439.415 1280 -443.134C1280.57 -443.385 1281.76 -442.628 1282.47 -442.095C1285.36 -439.951 1288.17 -437.711 1291 -435.508C1291 -434.55 1291 -433.592 1291 -432.634C1289.7 -431.46 1287.08 -429.601 1287.28 -429.221C1289.75 -424.52 1286.52 -423.841 1283.3 -423.143C1281.23 -422.694 1279.12 -422.248 1277.01 -422.113C1267.28 -421.487 1258.94 -419.802 1253.26 -409.715C1250.89 -405.5 1242.75 -402.596 1237.2 -402.527C1226.35 -402.392 1215.41 -404.341 1204.62 -406.06C1195.93 -407.44 1187.43 -409.907 1178.77 -411.512C1176.89 -411.862 1174.7 -410.589 1172.66 -410.065C1172.67 -409.473 1172.69 -408.88 1172.7 -408.29C1188.52 -403.527 1204.34 -398.763 1220.87 -393.787C1219.52 -391.973 1218.4 -390.458 1217.69 -389.494C1220.06 -388.111 1222.41 -386.74 1224.84 -385.324C1227.33 -389.377 1232.07 -389.428 1236.51 -384.126C1238.43 -381.824 1239.84 -377.126 1243.06 -383.578C1243.62 -384.677 1250.15 -384.524 1252.01 -382.839C1255.27 -379.869 1258.16 -378.737 1262.57 -378.503C1278.67 -377.647 1281.99 -372.737 1282.5 -356.749C1282.72 -349.845 1278.05 -346.226 1270.99 -347.845C1263.64 -349.537 1256.55 -352.375 1249.42 -354.693C1246.97 -350.004 1244.67 -342.684 1240.03 -337.439C1233.25 -329.777 1222.71 -328.307 1213.18 -326.178C1208.01 -325.023 1205.09 -324.226 1205.04 -317.993C1204.97 -310.445 1202.33 -303.242 1196.06 -298.472C1193.57 -296.574 1188.69 -294.565 1186.87 -295.718C1183.15 -298.068 1178.9 -302.245 1178.29 -306.197C1177.35 -312.34 1178.65 -319.029 1185.26 -323.035C1188.27 -324.864 1190.67 -327.726 1193.29 -330.181C1202.42 -338.744 1201.79 -340.504 1197.87 -352.043C1194.46 -362.067 1188 -366.309 1178.68 -368.626C1173.37 -369.947 1168.1 -371.764 1163.12 -374.051C1160.31 -375.348 1158.1 -378.006 1155.68 -380.123C1154.64 -381.027 1153.93 -382.752 1152.8 -383.027C1144.4 -385.078 1140.61 -392.15 1136.67 -398.485C1132.59 -405.045 1126.69 -403.709 1121.95 -402.102C1117.13 -400.464 1112.89 -396.446 1109.03 -392.793C1103.98 -388.006 1098.41 -386.674 1091.69 -387.377C1084.52 -388.126 1077.27 -388.288 1070.05 -388.288C1068.5 -388.288 1066.52 -386.847 1065.48 -385.497C1061.76 -380.707 1059.27 -374.477 1054.65 -371.01C1047.82 -365.884 1040.59 -362.621 1041.22 -351.803C1041.56 -345.974 1038.42 -339.852 1036.41 -334.013C1035.19 -330.502 1031.97 -327.388 1031.67 -323.921C1030.98 -315.969 1030.39 -307.682 1031.94 -299.963C1033.11 -294.104 1029.57 -291.239 1028.01 -287.021C1025.95 -281.416 1022.65 -281.356 1017.34 -282.344C1010.61 -283.599 1000.38 -274.671 1001.58 -267.865C1003.58 -256.578 992.5 -255.929 988.696 -249.587C988.633 -249.483 985.652 -250.794 984.348 -251.836C981.052 -254.47 978.326 -258.105 974.675 -259.949C965.239 -264.719 955.267 -268.425 945.812 -273.171C939.686 -276.245 935.897 -276.817 933.587 -268.799C932.848 -266.243 928.592 -264.288 925.56 -262.91C921.942 -261.267 917.731 -260.934 914.098 -259.312C908.87 -256.979 903.967 -253.195 899.248 -260.135C898.658 -261.003 896.641 -260.928 895.273 -261.231C889.755 -262.458 884.257 -264.506 878.702 -264.686C869.939 -264.964 866.695 -268.958 862.362 -276.817C854.203 -291.619 842.032 -304.164 832.051 -318.02C827.253 -324.678 809.788 -326.502 803.673 -317.415C802.551 -315.744 803.272 -311.921 804.445 -309.819C806.483 -306.167 808.348 -302.394 804.439 -299.778C802.497 -298.475 798.355 -299.266 795.76 -300.386C790.445 -302.685 785.669 -306.02 781.156 -298.987C780.33 -297.7 777.217 -297.556 775.134 -297.469C770.151 -297.263 765.153 -297.404 758.982 -297.404C760.293 -295.197 760.784 -293.949 761.628 -293.017C769.463 -284.362 770.839 -276.946 765.581 -266.422C763.043 -261.342 759.838 -256.437 756.124 -252.156C753.454 -249.078 752.365 -247.929 756.851 -245.749C763.893 -242.327 763.322 -242.088 758.06 -235.902C751.772 -228.51 745.395 -226.561 736.321 -230.995C728.635 -234.749 720.118 -236.755 712.106 -239.89C705.345 -242.534 698.776 -244.279 691.261 -243.079C687.763 -242.519 682.873 -243.914 680.224 -246.249C675.038 -250.827 669.642 -250.339 665.131 -247.33C662.528 -245.59 661.103 -240.638 660.915 -237.043C660.606 -231.142 661.25 -225.073 662.36 -219.238C664.775 -206.546 654.354 -199.502 649.856 -189.882C649.635 -189.406 646.031 -189.999 644.347 -190.81C637.682 -194.014 631.232 -197.672 624.516 -200.75C622.969 -201.46 620.21 -201.22 618.812 -200.253C613.162 -196.346 608.128 -191.49 602.292 -187.93C596.366 -184.316 593.125 -179.55 591.081 -173.02C588.612 -165.125 585.643 -157.215 581.564 -150.066C579.661 -146.731 574.929 -144.35 570.978 -142.985C563.778 -140.497 561.97 -136.719 566.127 -130.33C568.605 -126.519 570.524 -122.186 573.591 -118.944C579.84 -112.339 578.14 -104.836 577.009 -97.3336C576.79 -95.8786 575.623 -94.1061 574.369 -93.3427C561.74 -85.6572 555.209 -72.9719 547.368 -61.2626C542.625 -54.179 536.705 -47.8917 531.836 -40.8829C530.345 -38.7363 529.756 -35.2663 530.154 -32.6136C533.129 -12.8417 533.629 -18.1559 518.605 -8.11724C510.803 -2.9048 502.201 -1.5695 493.4 -1.42579C487.106 -1.32399 486.088 1.46939 487.052 6.57405C487.273 7.74768 487.638 8.9033 487.776 10.0859C488.976 20.5587 491.382 30.4507 487.62 41.6061C484.164 51.8573 485.84 63.7732 484.676 74.8987C484.26 78.8777 482.284 82.7338 480.755 86.5361C480.064 88.2577 477.9 89.6648 477.798 91.3025C476.879 105.697 466.554 115.29 459.979 126.76C455.46 134.646 450.549 142.316 445.59 149.936C443.073 153.804 443.615 156.534 447.598 158.723C451.342 160.777 454.861 163.504 458.848 164.786C463.852 166.396 465.644 169.196 465.507 174.235C465.411 177.788 465.938 181.417 466.638 184.92C468.688 195.153 464.549 203.752 459.315 211.847C458.237 213.515 454.544 214.587 452.336 214.225C445.279 213.072 438.356 211.096 431.371 209.476C414.408 205.542 401.811 210.629 392.1 225.284C385.516 235.221 378.86 245.11 372.395 255.122C371.614 256.331 371.168 258.454 371.68 259.691C375.161 268.095 370.986 274.627 366.461 280.807C362.965 285.582 362.39 289.774 365.078 295.226C367.915 300.977 370.004 307.192 371.575 313.42C372.213 315.947 370.725 319.06 370.01 321.86C369.283 324.713 367.278 327.65 367.649 330.294C368.903 339.272 370.953 348.036 366.987 356.991C366.14 358.907 367.287 362.311 368.52 364.448C380.048 384.439 377.402 405.253 372.728 426.324C371.542 431.662 370.914 437.21 370.824 442.674C370.776 445.5 371.671 449.132 373.533 451.045C378.124 455.764 381.386 461.629 389.14 463.581C393.342 464.641 395.832 471.763 399.51 475.763C408.075 485.074 405.66 494.568 400.222 504.02C393.809 515.169 393.096 515.864 380.802 519.535C375.78 521.035 374.377 522.669 376.367 527.983C381.61 541.98 386.791 556.064 390.696 570.467C392.112 575.692 389.939 581.928 389.221 587.683C388.718 591.718 386.871 595.868 387.425 599.706C389.194 612.014 379.401 630.927 367.957 635.178C365.662 636.032 362.771 635.163 360.17 635.325C356.103 635.58 353.948 636.882 355.773 641.735C359.55 651.774 358.09 655.223 349.135 662.265C347.672 663.414 346.681 666.259 346.867 668.184C347.25 672.19 348.001 676.351 349.599 680.013C355.357 693.216 351.314 706.216 349.372 719.278C348.812 723.041 347.819 726.745 347.382 730.52C346.723 736.212 342.907 738.245 338.023 738.457C336.673 738.517 334.534 736.532 333.941 735.023C331.906 729.838 331.397 723.739 328.321 719.395C326.381 716.652 320.914 716.383 317.005 715.078C315.58 714.602 314.096 714.275 312.618 714.009C311.579 713.82 310.499 713.841 309.439 713.769C310.035 714.988 310.394 716.425 311.28 717.374C312.54 718.724 315.311 719.634 315.395 720.874C315.521 722.691 313.842 724.634 312.929 726.523C311.127 725.607 308.838 725.104 307.626 723.682C305.462 721.146 299.177 719.302 305.067 714.365C305.309 714.161 304.929 712.506 304.45 712.248C295.717 707.554 298.034 697.449 293.781 690.545C290.229 684.779 291.333 678.435 293.987 672.234C288.792 673.486 284.65 674.483 279.703 675.674C282.067 678.093 285.368 680.24 286.787 683.27C288.178 686.246 287.317 690.192 288.059 693.575C289.19 698.728 288.077 700.97 282.555 703.141C279.963 704.159 279.407 711.614 278.853 716.263C278.042 723.039 275.764 727.652 268.007 727.389C267.271 727.362 266.367 727.907 265.783 728.446C258.307 735.371 255.372 734.787 252.834 726C250.134 728.913 247.357 731.883 244.618 734.886C243.041 736.616 237.732 737.601 243.287 741.005C243.371 741.056 242.521 743.685 241.632 744.104C233.979 747.715 229.334 754.065 224.92 760.948C222.448 764.801 218.71 767.84 215.535 771.238C215.373 771.409 215.032 771.48 214.972 771.663C210.716 784.435 197.907 790.621 191.628 801.95C189.794 805.258 185.592 807.195 182.698 809.991C180.758 811.863 179.508 814.542 177.401 816.123C175.291 817.71 172.573 818.701 169.97 819.339C168.377 819.728 164.352 814.65 166.091 821.404C164.66 821.752 163.23 822.401 161.799 822.395C153.898 822.365 147.673 825.437 143.214 832C142.256 832 141.299 832 140.341 832C136.806 826.844 126.278 824.437 122.082 828.353C118.215 831.964 116.001 830.988 113.816 826.934C111.966 823.506 109.913 822.165 105.394 823.611C100.073 825.314 92.1781 819.647 94.1773 817.075C99.5314 810.186 92.7258 807.746 90.2119 804.123C88.8352 802.141 85.0254 802.046 82.8706 800.378C74.6314 794.001 66.949 786.86 58.4285 780.905C50.3091 775.229 46.4454 767.292 43.6382 758.427C42.9498 756.256 41.4564 753.271 42.3094 751.858C46.7297 744.532 46.9662 736.79 46.4125 728.649C46.2569 726.368 47.2983 723.027 48.9773 721.808C52.1766 719.491 56.0971 717.53 59.9608 716.892C68.2957 715.518 62.1396 708.596 64.9797 705.302C63.0105 704.356 61.0472 703.398 59.072 702.464C58.1562 702.03 57.2224 701.638 56.2947 701.228C56.2797 700.71 66.9011 696.919 72.0636 695.584C66.7724 689.111 60.6372 691.866 56.0762 695.68C51.3655 699.62 46.9721 700.692 41.1661 698.53C44.4612 705.988 42.456 709.135 35.426 708.766C35.01 708.745 34.6299 709.814 34.0882 710.126C32.3973 711.102 30.6226 712.644 28.9107 712.605C27.9171 712.584 26.1035 709.919 26.1603 708.509C26.4446 701.542 27.0701 694.578 27.8812 687.647C29.0334 677.827 29.9851 667.968 37.3354 660.142C43.1653 653.932 53.0624 653.938 50.9076 655.058C50.5635 653.169 50.5994 651.088 49.7704 649.448C48.9204 647.768 47.2205 646.516 45.8917 645.079C43.1025 647.783 40.2294 650.406 37.5598 653.223C36.234 654.624 35.2823 656.382 34.163 657.977C33.355 656.444 31.2241 657.816 30.7153 659.848C30.045 662.528 28.6503 665.022 27.5669 667.597C26.4177 664.914 24.8555 662.324 24.23 659.528C23.5446 656.447 24.0803 653.103 23.4429 650.004C22.4373 645.097 20.896 640.301 19.1213 633.762C33.2323 641.517 28.2702 624.966 35.4409 624.544C32.6098 625.209 30.3861 627.379 27.8961 627.75C25.4989 628.107 22.8234 626.607 20.2705 625.921C21.5514 624.559 23.395 623.4 23.9786 621.787C24.7777 619.577 25.2745 616.826 24.637 614.685C24.215 613.275 29.0813 611.296 32.2476 615.14C33.2562 616.364 33.5226 620.873 36.1532 616.086C36.3448 615.736 38.1853 616.242 39.2478 616.43C41.2948 616.796 43.3209 617.406 45.38 617.562C47.7892 617.745 50.2283 617.553 52.6524 617.523C52.5297 620.556 52.4489 623.592 52.2664 626.619C52.1826 628.005 54.1668 632.879 51.9821 634.568C50.776 635.499 51.9162 640.544 52.4549 639.678C55.1903 635.28 58.0215 630.942 60.9005 626.454C53.1253 626.777 53.7717 621.786 53.8406 616.544C53.8615 614.969 57.9048 611.323 52.0688 610.799C49.8213 610.598 47.7622 608.305 45.2004 606.703C44.8772 607.104 43.9524 608.155 43.1414 609.284C41.4923 611.577 35.7283 611.847 34.588 609.496C31.8765 603.904 26.6122 598.251 26.2172 601.101C25.9419 603.077 24.7178 604.922 23.9157 606.823C22.2547 605.802 19.5912 605.116 19.1153 603.694C17.3675 598.488 15.919 593.093 15.1858 587.656C14.5932 583.261 13.5487 577.638 15.6197 574.455C19.2829 568.818 16.0208 564.524 15.1499 559.83C13.9169 553.186 11.8937 546.69 9.98134 539.25C17.9002 541.917 19.1422 539.732 13.5966 536.971C12.1182 536.235 10.8343 532.061 11.5855 530.468C13.6086 526.181 17.0832 522.633 20.0969 519.002C24.7477 513.397 32.2117 515.008 30.3053 512.379C24.9333 504.975 22.967 511.651 19.648 513.837C15.6676 516.46 10.0502 517.9 7.80559 521.51C5.24676 525.624 3.47802 523.681 1 523.022C1 520.148 1 517.274 1 514.4C2.37069 514.047 4.28608 514.142 5.01033 513.259C7.07236 510.747 8.65255 507.837 10.4213 505.083C8.60466 504.053 6.78505 503.026 4.96843 501.999C5.03427 501.508 5.10011 501.014 5.16595 500.523C10.9301 501.295 16.6912 502.068 22.9371 502.906C18.5766 499.295 15.8981 495.823 21.327 491.796C16.7779 490.814 12.8335 489.963 8.88897 489.11C8.90095 488.541 8.91292 487.969 8.92788 487.401C10.0681 486.742 11.1485 485.67 12.3606 485.49C17.99 484.655 18.427 479.131 20.495 475.682C22.6947 472.018 24.5502 467.542 18.1636 463.353C13.5128 460.305 16.335 448.491 21.4497 443.731C20.501 443.731 19.8246 443.914 19.3128 443.701C15.9759 442.318 11.2383 449.68 9.91849 443.68C9.05059 439.725 9.44563 433.348 14.7818 429.83C16.5984 428.633 17.7267 425.827 18.3372 423.534C18.8609 421.555 18.1995 419.261 18.0619 417.109C20.908 417.911 24.9123 417.803 26.3848 419.684C31.1194 425.725 32.0741 414.055 31.0116 413.085C28.8718 411.136 25.3792 410.307 23.9247 408.055C21.9644 405.019 21.4617 400.52 26.0077 399.157C27.9829 398.564 31.0266 400.906 33.343 402.313C34.9142 403.268 35.818 402.882 35.1836 401.133C34.8424 400.196 34.3396 398.675 34.7676 398.208C36.671 396.139 38.6941 394.044 41.0584 392.574C42.7583 391.517 45.0597 391.433 47.0918 390.912C46.9213 390.361 46.7507 389.813 46.5801 389.262C44.8054 388.9 43.0336 388.541 41.2589 388.178C42.3243 386.529 43.306 384.819 44.4821 383.253C45.2992 382.164 46.2269 380.948 47.3941 380.388C48.5164 379.849 50.5395 379.481 51.2398 380.095C53.3647 381.954 55.0437 384.328 56.4892 386.023C59.5837 380.709 62.5436 375.661 65.4645 370.589C66.3055 369.128 66.925 367.532 67.8468 366.128C69.0409 364.314 70.4415 362.631 71.7494 360.895C72.716 362.269 73.6259 363.685 74.6644 365.002C75.5562 366.134 76.5977 367.149 77.5703 368.218C78.3844 366.999 79.2343 365.802 80.0095 364.562C81.4699 362.224 83.1998 357.697 84.2682 357.853C91.6604 358.934 95.6048 353.233 98.5827 349.203C102.36 344.093 106.95 344.736 111.535 343.677C112.43 343.47 112.658 341.718 112.23 341.527C109.806 340.428 107.528 339 105.2 337.683C106.624 336.078 107.809 334.111 109.542 332.97C111.356 331.776 116.129 332.704 111.745 328.431C111.335 328.03 112.152 325.315 113.053 324.788C119.335 321.117 124.47 314.117 133.323 317.312C133.769 317.474 134.816 316.959 135.086 316.48C139.557 308.48 146.904 305.186 155.466 303.758C156.622 303.567 158.094 303.24 158.75 302.432C164.642 295.142 172.471 291.633 181.429 289.708C182.901 289.39 183.53 285.956 184.904 284.244C192.344 274.963 203.944 274.1 214.08 270.484C215.906 269.834 218.812 265.669 212.066 268.693C205.018 271.852 197.336 273.9 189.722 275.349C186.439 275.975 182.635 273.876 179.071 273.014C180.328 269.705 180.696 265.439 183.021 263.289C187.86 258.813 193.535 255.107 199.278 251.805C201.678 250.424 205.129 250.766 208.116 250.556C210.213 250.409 212.506 251.209 214.418 250.622C220.802 248.667 220.757 248.502 220.38 255.709C220.215 258.903 228.212 261.092 221.888 265.75C228.963 261.906 236.098 258.167 243.086 254.173C247.291 251.769 252.753 253.846 252.594 252.361C252.175 248.499 250.541 246.389 246.654 249.155C240.626 253.439 240.135 250.879 240.252 244.948C240.387 238.107 242.556 232.305 248.629 229.943C255.746 227.176 258.269 221.668 260.555 216.353C258.155 215.407 255.988 214.554 253.818 213.701C255.027 211.943 255.835 209.449 257.505 208.545C270.018 201.77 276.534 189.366 285.503 179.282C285.817 178.929 286.583 178.552 286.526 178.348C283.231 165.885 296.738 171.298 299.952 165.657C298.638 164.914 297.321 164.169 296.005 163.423C296.238 162.672 296.474 161.921 296.711 161.169C300.006 162.016 304.31 164.519 306.333 163.283C308.739 161.813 308.332 156.229 310.657 154.029C315.544 149.409 320.596 144.565 328.782 145.846C330.778 146.16 333.366 141.69 335.922 139.729C338.278 137.918 340.953 136.526 343.362 133.337C340.627 134.2 337.682 134.685 335.219 136.041C333.01 137.256 331.589 140.098 329.338 140.978C327.552 141.676 321.165 146.906 324.014 137.867C324.274 137.044 321.748 135.227 320.378 134.029C317.726 131.712 315.23 128.197 312.202 127.613C308.996 126.996 305.297 129.499 301.724 130.125C296.597 131.023 296.867 127.876 298.123 124.505C299.078 121.942 299.988 119.281 301.466 117.023C302.221 115.874 304.36 114.709 305.578 114.964C308.757 115.634 312.962 120.077 312.408 112.095C314.258 112.727 317.247 112.862 317.774 114.071C321.557 122.76 321.512 122.152 330.245 119.966C340.6 117.377 346.466 110.344 352.167 102.395C353.705 100.248 356.552 99.0418 358.796 97.4042C359.712 99.0059 360.628 100.611 361.699 102.488C361.882 99.1885 369.394 94.6018 359.323 93.3713C358.599 93.2815 357.982 92.3025 357.315 91.7366C358.027 90.9283 358.796 89.3804 359.44 89.4313C363.86 89.7875 363.968 87.3475 363.582 84.0212C363.402 82.4794 363.698 80.6051 364.458 79.2758C367.861 73.3359 370.187 67.1953 370.256 60.1955C370.273 58.3572 371.908 56.5339 372.799 54.7076C374.392 55.8662 375.984 57.0279 378.168 58.6177C377.462 55.6088 377.621 52.2017 376.02 50.2317C371.046 44.124 375.768 42.5432 379.877 40.3576C382.11 39.1691 384.277 37.8577 386.473 36.6033C386.153 36.0823 385.836 35.5614 385.516 35.0404C384.552 35.4985 383.627 36.1062 382.616 36.3727C381.398 36.693 380.102 36.723 378.839 36.8757C379.267 35.6002 379.566 34.262 380.156 33.0674C380.685 32.0016 384.905 30.4836 379.617 30.5675C378.854 30.5794 377.588 29.2891 377.378 28.4029C376.145 23.2503 376.226 23.2293 370.567 27.5256C372.743 22.9449 371.079 17.3043 378.74 18.4989C380.15 18.7174 382.436 13.3164 384.316 10.511C381.847 10.9661 379.09 10.8943 376.989 12.032C375.005 13.1068 373.706 15.451 372.108 17.2354C371.384 16.7025 370.657 16.1696 369.932 15.6397C374.182 9.09195 378.435 2.5442 382.23 -3.30595C382.164 -3.27302 380.934 -2.26705 379.572 -2.03352C377.965 -1.75808 376.244 -2.15628 374.574 -2.26107C375.75 -3.1353 376.968 -3.96464 378.1 -4.89575C385.121 -10.683 391.091 -13.2997 392.471 -0.476706C392.549 0.235852 394.799 1.47538 395.015 1.28975C397.217 -0.626368 399.51 -2.57244 401.195 -4.92568C404.475 -9.5094 407.381 -14.3626 410.661 -19.4403C410.443 -19.7996 409.234 -21.9552 407.848 -23.9851C407.21 -24.9222 406.351 -26 405.364 -26.3383C403.82 -26.8713 402.078 -26.8293 400.423 -27.0299C400.764 -29.3083 401.102 -31.5897 401.443 -33.8681C403.359 -33.5537 405.274 -33.0148 407.192 -32.9998C408.782 -32.9849 410.38 -33.5897 411.972 -33.919C411.307 -35.1615 410.927 -36.7273 409.934 -37.5865C405.253 -41.6403 409.635 -47.0235 407.707 -51.4246C408.674 -51.7748 410.089 -52.7089 410.526 -52.3706C412.19 -51.0862 413.806 -49.5593 414.896 -47.7869C415.5 -46.8019 415.028 -45.1522 415.04 -43.802C416.153 -45.0954 417.341 -46.3378 418.344 -47.7121C418.733 -48.245 419.08 -49.2988 418.819 -49.7449C414.211 -57.5741 419.885 -56.7238 425.278 -56.5681C417.778 -58.2238 419.517 -62.8135 422.156 -66.0799C425.059 -69.6756 429.366 -72.1126 432.918 -75.2174C434.11 -76.2592 439.015 -76.6036 433.762 -79.6814C431.47 -81.0256 431.524 -84.1423 435.8 -84.9417C442.762 -86.244 449.633 -88.0494 456.484 -89.8607C457.028 -90.0044 457.417 -91.8697 457.375 -92.9146C457.163 -98.3126 454.966 -104.624 464.729 -103.612C466.913 -103.384 469.314 -106.6 471.822 -107.791C476.766 -110.142 481.853 -112.187 487.106 -114.453C482.563 -113.98 478.017 -113.507 471.765 -112.854C473.707 -115.225 474.707 -116.264 475.5 -117.441C479.905 -123.977 484.783 -130.264 488.497 -137.174C493.214 -145.949 506.292 -151.15 513.861 -147.395C514.55 -150.575 514.367 -154.638 516.261 -157.093C518.162 -159.554 517.408 -166.55 524.315 -163.601C525.018 -163.299 527.32 -166.742 529.118 -168.709C523.223 -170.981 520.658 -165.802 516.803 -163.658C511.057 -160.464 505.212 -157.392 499.179 -154.796C497.563 -154.102 495.123 -155.32 493.061 -155.662C493.711 -157.135 494.627 -158.551 494.944 -160.093C495.444 -162.527 496.716 -166.021 495.605 -167.353C490.763 -173.158 496.656 -174.901 498.888 -178.152C500.241 -180.122 500.899 -182.577 502.279 -184.523C503.527 -186.281 505.314 -188.93 506.903 -188.96C514.14 -189.089 516.983 -194.49 520.99 -198.945C523.938 -202.22 525.775 -208.717 532.596 -205.175C536.502 -212.196 541.766 -207.16 546.527 -206.837C546.916 -206.81 547.488 -207.903 547.799 -208.561C549.119 -211.346 549.843 -214.615 551.774 -216.852C554.455 -219.959 557.427 -218.313 558.118 -214.971C559.247 -209.522 559.36 -203.873 560.142 -198.34C560.366 -196.741 561.285 -195.179 562.18 -193.789C562.377 -193.481 564.511 -193.813 564.589 -194.134C565.334 -197.241 565.606 -200.475 566.513 -203.526C566.863 -204.702 568.557 -205.439 569.518 -206.487C570.838 -207.924 572.044 -209.466 573.298 -210.963C571.649 -211.028 569.979 -210.951 568.354 -211.19C566.187 -211.51 564.047 -215.43 564.526 -216.079C562.078 -218.576 559.139 -221.34 556.601 -224.432C556.26 -224.845 556.595 -236.809 555.877 -235.369C553.74 -231.082 552.486 -225.474 545.695 -230.489C545.238 -230.827 542.188 -228.345 540.91 -226.729C538.366 -223.507 536.597 -219.51 531.566 -223.938C530.292 -225.058 527.442 -224.66 525.348 -224.522C520.469 -224.202 506.912 -217.825 498.951 -212.352C497.057 -211.049 494.549 -210.648 492.322 -209.831C493.352 -211.828 494.381 -213.825 495.689 -216.358C494.552 -216.421 492.966 -216.965 491.789 -216.492C486.088 -214.202 480.489 -211.654 474.865 -209.172C466.611 -205.532 466.617 -205.523 465.89 -214.148C461.96 -212.202 457.687 -210.567 453.982 -208.076C451.513 -206.418 450.3 -202.445 447.757 -201.436C442.25 -199.244 436.166 -198.556 430.503 -196.684C428.459 -196.008 427.124 -192.682 425.161 -192.343C417.529 -191.029 414.234 -185.52 410.502 -179.724C408.458 -176.55 404.55 -174.544 401.354 -172.182C400.758 -171.742 399.022 -171.784 398.744 -172.212C398.247 -172.975 398.061 -174.383 398.439 -175.203C402.278 -183.544 406.678 -191.655 410.006 -200.19C411.487 -203.993 412.588 -203.385 415.56 -202.466C417.105 -201.987 420.597 -203.394 421.118 -204.75C423.868 -211.924 427.256 -208.561 430.3 -206.424C432.071 -210.654 432.945 -218.022 436.094 -219.175C442.929 -221.675 449.819 -225.854 458.142 -223.929C462.46 -222.929 467.38 -224.519 472.028 -224.935C473.761 -225.088 475.5 -225.223 475.832 -226.827C477.502 -228.705 478.911 -230.941 480.896 -232.387C485.992 -236.103 491.122 -238.013 498.032 -235.809C501.465 -234.713 506.325 -237.755 510.425 -239.237C512.613 -240.031 513.541 -243.983 514.648 -246.543C515.597 -248.737 518.536 -250.039 520.514 -251.827C522.866 -253.956 521.149 -256.997 518.665 -255.33C513.882 -252.123 509.342 -248.459 505.146 -244.513C499.547 -239.243 490.033 -240.387 487.046 -247.348C486.567 -248.468 488.004 -251.417 489.269 -252.027C490.987 -252.851 493.397 -252.231 496.27 -252.231C495.842 -254.366 495.405 -256.548 494.968 -258.734C492.669 -257.671 490.461 -256.303 488.054 -255.623C484.825 -254.713 480.306 -252.728 478.391 -254.09C475.176 -256.375 473.402 -260.443 476.427 -265.344C481.363 -273.326 482.254 -271.422 491.763 -277.063C498.347 -280.97 497.99 -274.21 501.702 -274.961C500.956 -276.721 500.468 -278.506 499.517 -279.994C496.868 -284.137 494.983 -287.595 502.486 -288.344C503.841 -288.479 504.718 -291.538 506.203 -292.787C507.915 -294.23 509.959 -295.691 512.057 -296.077C512.936 -296.239 514.208 -293.538 515.513 -292.38C516.486 -291.514 517.788 -291.005 518.97 -290.392C519.365 -290.188 520.17 -290.251 520.239 -290.026C521.164 -286.958 521.059 -282.862 523.055 -280.988C526.389 -277.856 525.108 -275.844 523.42 -273.021C522.917 -272.18 523.061 -270.635 523.483 -269.665C523.77 -269.003 525.06 -268.779 525.901 -268.356C526.236 -269.377 526.479 -270.446 526.925 -271.416C528.732 -275.341 530.6 -279.233 532.446 -283.14C532.958 -284.143 533.467 -285.149 533.979 -286.152C537.154 -293.086 543.87 -290.206 549.074 -291.38C549.532 -291.485 550.741 -288.985 551.34 -287.583C552.417 -285.069 549.682 -280.578 555.147 -280.368C553.893 -278.452 552.642 -276.536 552.025 -275.59C553.183 -271.509 554.318 -267.512 555.296 -264.075C555.619 -265.38 555.709 -268.036 556.885 -270.063C559.726 -274.955 563.027 -279.587 566.325 -284.194C566.531 -284.482 568.339 -283.718 569.35 -283.314C578.46 -279.691 584.287 -273.739 583.177 -263.156C582.564 -257.315 585.532 -258.958 588.732 -260.15C594.346 -262.24 599.368 -265.527 606.275 -263.68C611.71 -262.228 614.538 -268.012 611.731 -273.386C611.076 -274.641 610.767 -276.075 610.289 -277.422C609.259 -280.329 608.224 -283.23 607.191 -286.137C611.121 -286.455 615.227 -287.637 618.944 -286.889C625.076 -285.652 626.779 -296.934 627.871 -297.814C633.477 -302.332 639.471 -309.792 636.048 -309.664C633.459 -309.568 630.84 -308.76 628.305 -309.011C621.751 -309.664 616.053 -305.209 614.209 -298.574C613.703 -296.751 610.8 -295.017 608.676 -294.455C607.58 -294.164 605.889 -296.727 604.267 -297.646C602.858 -298.445 601.167 -298.745 599.601 -299.269C596.824 -300.197 592.278 -300.448 591.617 -302.182C589.869 -306.772 594.047 -307.152 597.477 -307.763C599.763 -308.17 601.927 -309.275 603.98 -310.005C601.562 -312.472 599.26 -314.825 596.956 -317.179C599.377 -318.229 601.798 -319.277 604.285 -320.355C603.229 -321.032 602.103 -321.894 600.858 -322.523C596.465 -324.744 596.07 -326.571 601.292 -327.993C600.58 -329.945 594.092 -328.603 598.207 -333.145C599.431 -334.492 601.607 -335.331 603.477 -335.66C607.395 -336.352 611.396 -336.549 616.062 -337.019C614.544 -339.361 613.251 -340.992 612.393 -342.831C611.992 -343.687 612.126 -345.729 612.536 -345.884C615.87 -347.166 619.345 -348.07 622.733 -349.226C623.538 -349.501 624.465 -350.142 624.816 -350.866C625.651 -352.585 626.171 -354.453 626.821 -356.261C628.598 -354.797 630.391 -353.348 632.148 -351.857C632.66 -351.423 633.073 -350.869 633.537 -350.363C635.245 -352.046 631.573 -356.755 639.274 -354.98C651.448 -352.172 653.861 -343.863 657.943 -334.51C658.457 -337.334 658.167 -340.184 659.433 -341.852C663.132 -346.726 667.457 -345.899 670.824 -340.624C672.82 -337.492 668.597 -341.525 673.64 -347.573C668.124 -348.42 662.291 -348.971 656.665 -350.363C654.585 -350.878 651.191 -354.001 651.49 -354.857C652.771 -358.543 655.127 -361.875 657.26 -365.231C657.871 -366.192 659.478 -366.617 659.87 -367.593C660.502 -369.165 660.508 -370.992 660.777 -372.713C662.629 -371.563 664.482 -370.414 665.535 -369.761C667.095 -371.875 668.286 -375.159 670.438 -376.012C673.643 -377.285 678.048 -378.03 680.96 -376.755C683.375 -375.698 686.111 -374.941 684.997 -377.878C683.866 -380.866 680.781 -383.922 686.356 -385.731C686.781 -385.868 687.29 -387.288 687.054 -387.674C684.845 -391.258 686.718 -392.338 689.942 -392.928C690.564 -393.042 691.028 -394.03 691.564 -394.614C690.735 -394.937 689.807 -395.683 689.095 -395.515C681.61 -393.725 682.576 -400.018 683.63 -402.811C685.542 -407.874 688.436 -414.999 692.494 -416.278C699.489 -418.481 707.207 -417.838 710.87 -426.026C711.636 -425.634 713.037 -425.29 713.07 -424.844C713.366 -420.82 714.001 -416.688 713.402 -412.76C712.663 -407.904 705.711 -405.652 706.644 -405.599C710.529 -405.374 714.437 -405.619 718.328 -405.434C719.253 -405.389 720.127 -404.338 721.025 -403.751C720.22 -403.215 729.922 -400.685 734.492 -397.793C735.504 -397.153 736.904 -397.147 738.113 -396.799C740.208 -396.201 742.48 -395.862 744.249 -394.737C744.689 -394.455 743.435 -391.605 743.048 -389.913C740.894 -380.425 739.415 -378.042 737.5 -371.138C736.599 -367.896 741.681 -371.471 744.958 -375.8C748.483 -380.458 751.701 -385.416 755.699 -389.626C757.785 -391.823 763.265 -394.464 763.779 -393.88C766.617 -390.653 769.247 -386.704 770.253 -382.587C770.953 -379.713 768.954 -376.168 768.128 -372.935C766.976 -368.426 764.698 -364.112 768.155 -359.339C769.02 -358.145 767.577 -355.079 766.865 -352.986C765.794 -349.839 764.432 -346.792 763.193 -343.702C764.001 -343.124 764.812 -342.546 765.62 -341.968C766.392 -343.34 767.419 -344.63 767.889 -346.097C770.001 -352.723 778.902 -353.345 777.887 -353.788C772.683 -356.058 769.789 -358.944 773.802 -364.665C774.239 -365.291 774.242 -366.761 773.802 -367.381C769.675 -373.189 773.88 -373.845 776.28 -374.506C776.28 -377.836 775.526 -381.399 776.466 -384.437C777.723 -388.506 784.564 -389.71 785.336 -386.467C785.947 -383.907 785.459 -381.087 785.459 -377.662C787.596 -381.749 789.281 -384.97 790.349 -387.018C788.581 -390.599 786.974 -394.171 785.058 -397.569C784.382 -398.772 783.101 -400.093 781.85 -400.419C779.459 -401.045 776.672 -400.458 774.455 -401.365C771.68 -402.5 767.206 -404.631 767.203 -406.335C767.203 -409.934 768.703 -414.607 771.303 -416.853C774.389 -419.517 779.225 -420.963 783.409 -421.215C785.594 -421.347 788.165 -417.949 790.248 -415.838C791.472 -414.595 791.885 -412.586 793.007 -411.2C797.164 -406.066 793.468 -400.841 795.084 -401.269C797.358 -401.871 798.915 -406.09 801.482 -401.018C803.829 -396.383 801.677 -394.835 798.11 -393.329C797.801 -393.198 797.712 -392.548 797.433 -391.961C799.112 -391.665 800.722 -391.38 802.332 -391.096C801.327 -389.68 800.342 -388.246 799.304 -386.85C798.322 -385.527 797.086 -384.342 796.398 -382.889C796.209 -382.488 798.068 -380.602 798.158 -380.659C801.135 -382.623 805.379 -384.162 806.564 -386.976C808.058 -390.521 806.729 -395.165 807.292 -399.242C807.477 -400.581 810.401 -402.904 810.991 -402.608C816.351 -399.928 821.468 -396.757 826.67 -393.754C827.66 -393.183 828.711 -392.707 829.734 -392.189C831.153 -391.473 830.893 -388.419 829.426 -387.653C833.239 -385.704 837.366 -383.593 841.691 -381.381C843.049 -386.38 836.854 -393.422 845.671 -396.47C840.775 -395.392 836.196 -399.635 830.806 -396.497C828.639 -395.236 823.878 -396.356 827.188 -401.467C827.592 -402.09 827.672 -403.706 827.334 -403.91C822.731 -406.673 817.928 -409.113 813.388 -411.967C811.08 -413.416 809.195 -415.538 807.118 -417.356C808.566 -418.832 809.847 -420.538 811.496 -421.742C815.234 -424.472 821.51 -422.942 823.423 -428.82C825.592 -427.305 827.765 -425.79 830.372 -423.969C830.255 -425.11 829.932 -426.161 830.091 -427.137C830.605 -430.307 831.294 -433.451 831.916 -436.604C833.601 -435.978 836.064 -435.831 836.806 -434.628C838.258 -432.266 838.749 -429.316 839.721 -426.361C845.387 -434.541 852.587 -424.787 859.821 -425.981C860.398 -426.077 862.026 -423.736 862.02 -422.535C862.009 -420.517 881.453 -418.784 885.505 -419.167C893.957 -419.969 895.507 -413.805 895.881 -408.763C896.237 -403.94 900.31 -401.955 901.002 -399.545C902.965 -392.707 905.82 -394.5 910.133 -395.835C912.021 -396.419 914.412 -395.392 916.528 -395.102C911.587 -398.599 907.436 -401.536 903.285 -404.47C905.7 -406.233 908.112 -407.997 910.543 -409.769C910.198 -409.904 909.606 -410.302 908.98 -410.356C907.253 -410.503 906.242 -412.356 907.379 -413.353C907.771 -413.697 908.235 -414.619 908.073 -414.844C903.48 -421.11 909.818 -421.841 912.754 -424.397C914.397 -425.829 902.651 -421.667 895.621 -429.751C895.037 -430.418 893.983 -430.676 893.145 -431.125L892.924 -431.382Z" stroke="#E8462E" stroke-miterlimit="10"/>
</svg>
