<svg width="72" height="72" viewBox="0 0 72 72" fill="none" xmlns="http://www.w3.org/2000/svg">
<path d="M36 4.5C29.4383 4.50774 23.1475 7.11781 18.5077 11.7577C13.8678 16.3975 11.2578 22.6883 11.25 29.25C11.2422 34.6123 12.9937 39.829 16.236 44.1C16.236 44.1 16.911 44.9888 17.0213 45.117L36 67.5L54.9878 45.1058C55.0868 44.9865 55.764 44.1 55.764 44.1L55.7663 44.0933C59.007 39.8241 60.7577 34.6098 60.75 29.25C60.7423 22.6883 58.1322 16.3975 53.4924 11.7577C48.8525 7.11781 42.5618 4.50774 36 4.5ZM36 38.25C34.22 38.25 32.4799 37.7222 30.9999 36.7332C29.5199 35.7443 28.3663 34.3387 27.6851 32.6942C27.0039 31.0496 26.8257 29.24 27.173 27.4942C27.5202 25.7484 28.3774 24.1447 29.6361 22.886C30.8947 21.6274 32.4984 20.7702 34.2442 20.4229C35.99 20.0757 37.7996 20.2539 39.4442 20.9351C41.0887 21.6163 42.4943 22.7698 43.4833 24.2499C44.4722 25.7299 45 27.47 45 29.25C44.997 31.636 44.0479 33.9235 42.3607 35.6107C40.6735 37.2979 38.3861 38.247 36 38.25Z" fill="#E8462E"/>
</svg>
